<?xml version="1.0" encoding="utf-8"?>
<!-- Generator: Adobe Illustrator 22.1.0, SVG Export Plug-In . SVG Version: 6.00 Build 0)  -->
<svg version="1.1" id="Camada_1" xmlns="http://www.w3.org/2000/svg" xmlns:xlink="http://www.w3.org/1999/xlink" x="0px" y="0px"
	 viewBox="0 0 24 24" style="enable-background:new 0 0 24 24;" xml:space="preserve">
<style type="text/css">
	.st0{fill:#FFFFFF;}
</style>
<path class="st0" d="M21,10.4h-2.5c-0.3,0-0.5,0.1-0.7,0.3L16.5,12l-2.8-3.2c-0.4-0.4-1-0.4-1.4,0l0,0l-1.7,1.7H9c-0.6,0-1,0.4-1,1
	s0.4,1,1,1h2c0.3,0,0.5-0.1,0.7-0.3l1.3-1.3l2.8,3.2c0.2,0.2,0.4,0.3,0.7,0.3l0,0c0.3,0,0.5-0.1,0.7-0.3l1.7-1.7H21c0.6,0,1-0.4,1-1
	S21.6,10.4,21,10.4z M13.6,15.7l-1.9,1.9c-0.4,0.4-1,0.4-1.4,0l0,0l-5.2-5.2c-1.4-1.4-1.4-3.8,0-5.2l0,0c1.4-1.4,3.8-1.4,5.2,0
	c0.4,0.4,1,0.4,1.4,0l0,0c1.5-1.4,3.8-1.4,5.2,0c0.2,0.2,0.4,0.5,0.6,0.8c0.3,0.4,1,0.5,1.4,0.2s0.5-0.8,0.3-1.2
	c-0.2-0.4-0.5-0.8-0.9-1.1c-2-2-5.1-2.3-7.3-0.6c-2.5-2-6.1-1.4-7.9,1.2C2.4,7.4,2,8.6,2,9.8c0,1.5,0.6,2.9,1.7,4L8.9,19
	c1.2,1.2,3.1,1.2,4.2,0l1.9-1.9c0.4-0.4,0.4-1,0-1.4C14.6,15.3,14,15.3,13.6,15.7z"/>
</svg>
