<svg xmlns="http://www.w3.org/2000/svg" viewBox="0 0 778.61 1168.44"><defs><style>.cls-1{fill:#555454;}.cls-2{fill:#3c3c3b;}.cls-3{fill:#fec906;}.cls-4{fill:#ffe15c;}.cls-5{fill:#fff;}</style></defs><title>selo2</title><g id="Camada_2" data-name="Camada 2"><g id="Capa_1" data-name="Capa 1"><path class="cls-1" d="M628.6,600c-37.86,127.7-140.08,191.88-232.92,146.3l133.81,422.16L605,966.06l157.47,56.24Z"/><path class="cls-1" d="M272.18,743.53c-47.86-25.8-83.79-76.4-103.22-137.38l-115.76,425,155.11-68,83.08,196.41L404.6,743.91C363.4,765.86,316.55,767.45,272.18,743.53Z"/><path class="cls-2" d="M423.54,834.16a446.55,446.55,0,0,0,252.1-85.77L628.6,600c-37.86,127.7-140.08,191.88-232.92,146.3Z"/><path class="cls-2" d="M272.18,743.53c-47.86-25.8-83.79-76.4-103.22-137.38l-43,158a447.29,447.29,0,0,0,254.12,69.91l24.55-90.15C363.4,765.86,316.55,767.45,272.18,743.53Z"/><circle class="cls-3" cx="389.31" cy="389.3" r="389.2" transform="translate(-161.25 389.31) rotate(-45)"/><path class="cls-4" d="M712.94,477.18c-7.55,3.82-13.1,7.77-17.79,13a332.2,332.2,0,0,0,9.3-42.86c16.38,1.81,28.19-1.94,41.58-13.09,11.59-9.64,17-18.38,20.87-33.57-17.42-1.77-29.23,1.84-43.15,13.21-8.62,7-13.89,13.53-17.8,22.48a415.17,415.17,0,0,0,2.9-45.31c0-1.47,0-2.94,0-4.4,16.82-1.76,27.82-8,38.94-22.14,9.47-12,13.09-21.78,13.9-37.49-17.38,2.14-28.23,8.3-39.64,22.53-7.4,9.22-11.33,17-13.34,27.34a330,330,0,0,0-5.4-51c15.44-5.5,24.72-14.06,32.67-30,6.94-13.87,8.59-24.22,6.33-39.77-16.59,6-26,14.42-34.41,30.87-4.57,8.95-6.94,16.39-7.56,24.77a293.87,293.87,0,0,0-14.23-44.49c13.31-8.67,20.45-19,25-35.85,4.1-15.11,3.7-25.62-1.52-40.32C694.54,200.65,687,211,681.94,229c-2.36,8.42-3.34,15.38-2.92,22.48a271.75,271.75,0,0,0-21.86-37.29c11.07-11.33,16-23,17.15-40.27,1.08-15.7-1.34-25.87-9.3-39.1-12.89,12.69-18.29,24.52-19.72,43.21-.66,8.56-.29,15.46,1.39,22.16a266.67,266.67,0,0,0-28.8-30.64c8.88-13.73,11.49-26.31,9.27-43.71-2-15.58-6.33-25-16.68-36.15-10.15,15.29-13.14,28-10.91,46.66,1.11,9.3,3,16.41,6.51,23.07a273.58,273.58,0,0,0-35.37-24.25c6.43-15.87,6.66-28.95,1-45.82-5-14.81-11.05-23-23.34-31.65-7,17.2-7.4,30.36-1.62,48.07,3.25,10,7,17,12.68,23.23a292.52,292.52,0,0,0-41.24-17.44c3.35-17.2,1.1-30.16-7.81-45.56-7.73-13.37-15.27-20.08-29-25.76-3.47,18.38-1.35,31.36,7.74,47.38,5.25,9.27,10.37,15.38,17.46,20.31q-7-2.06-14.15-3.8L481,106.73q11.24,2.72,22.1,6.27c-11.56,2.18-20.56,7.76-29.95,18.11-10.24,11.29-14.49,20.76-16.31,36.36,17.48-.83,28.7-6.17,41-19.5,9.21-10,13.69-18.45,16.19-31.16a292.36,292.36,0,0,1,37.44,16.9c-10,.41-18.93,3.93-28.84,11-12.19,8.76-18.18,17.06-23,31.92,17.26,3.08,29.27.36,43.9-9.94,10.48-7.37,16.45-14.37,21.26-25.39a288.92,288.92,0,0,1,32.66,23.18c-9.43-1.47-18.46.06-29,4.6-13.63,5.83-21.1,12.63-28.69,26.1,16.29,6.86,28.56,6.87,44.86.05,11.55-4.82,18.72-10.26,25.48-19.76a282.07,282.07,0,0,1,27.83,29.68c-9-3.59-18.15-4.13-29.43-2-14.46,2.67-23.09,7.66-33.13,19.13,14.6,10.35,26.61,13.1,43.88,10.07,12.29-2.16,20.37-5.91,28.88-13.77a280.52,280.52,0,0,1,21.67,35.57c-8.17-5.67-17.12-8.31-28.72-8.78-14.67-.6-24.07,2.34-36.12,11.33,12.28,13.37,23.49,18.73,41,19.63,12.49.63,21.14-1.26,31-7.11a285.64,285.64,0,0,1,14,39.48c-6.85-7.24-15-11.76-26.19-14.77-14.23-3.86-24-3.07-37.52,3,9.42,15.82,19.34,23.57,36.26,28.32,12,3.38,20.78,3.49,31.46.07a296.23,296.23,0,0,1,5.65,40.59c-5.23-8.07-12.21-14-22.11-19.24-13.16-6.95-22.88-8.35-37.29-5.4,6.14,17.57,14.35,27.36,30,35.79,10.88,5.87,19.34,8,30.17,7.13q0,3.34,0,6.72-.2,17.74-1.75,34.21c-3.55-9.08-9.23-16.45-17.9-23.76-11.53-9.74-20.76-13.28-35.44-13.59,2.61,18.54,8.73,29.95,22.39,41.69,9.7,8.32,17.69,12.25,28.79,13.78a315.7,315.7,0,0,1-9.66,44.55c-1.07-11.82-5.29-21.61-13.55-32.23-9.39-12.09-17.73-17.61-32-21.2-1,18.73,2.74,31.26,13.82,45.78,8.38,11,15.83,16.63,27.57,20.63a250.14,250.14,0,0,1-20.73,44.8c2.28-13.53.25-25-6.45-38.66-6.84-13.91-13.93-21.18-27.22-27.86-4.65,18.08-3.38,31.17,4.64,47.85,6.24,13,12.61,20.22,23.91,26.91a227.07,227.07,0,0,1-29,36.13c4-11.79,4-22.92.31-36.77-4-15.14-9.53-23.82-21.23-33.31-8.06,16.65-9.36,29.73-4.74,47.83,3.45,13.5,8,21.9,17,30.56a240.26,240.26,0,0,1-31.26,24.09c3.87-8.86,5.17-18.27,4.44-30-1-15.71-4.69-25.43-14.29-37.33C567.84,569.51,564,582,565,600.76c.68,12.62,3.07,21.36,8.75,30.64a289.75,289.75,0,0,1-39.87,18.27c5.78-7.95,9-17,10.62-29,2.09-15.58.34-25.92-6.75-39.69-13.68,11.68-19.84,23.08-22.48,41.62-1.81,12.72-1.12,21.9,2.82,32.48a376.81,376.81,0,0,1-54.4,12.6c14-7.39,21.95-17,27.87-33.39,5.3-14.67,5.76-25.18,1.75-40.32-15.78,8.1-24.17,17.72-30.64,35.14-5.29,14.27-6,24.51-2.8,39.16l-2.67.38h-.39s0,0,0,.06q-15.37,2.17-31.19,3.31A87.26,87.26,0,0,0,394,680.78a87,87,0,0,0-31.47-8.67q-15.8-1.12-31.18-3.3s0,0,0-.06H331l-2.68-.37c3.24-14.65,2.49-24.9-2.8-39.16-6.47-17.43-14.85-27.05-30.64-35.15-4,15.15-3.55,25.63,1.76,40.32,5.92,16.36,13.89,26,27.86,33.39a378,378,0,0,1-54.39-12.59c3.94-10.58,4.63-19.76,2.81-32.48-2.64-18.54-8.79-29.94-22.48-41.64-7.08,13.79-8.83,24.12-6.74,39.7,1.61,12,4.83,21.05,10.61,29a288,288,0,0,1-39.86-18.28c5.67-9.28,8.07-18,8.74-30.64,1-18.73-2.79-31.24-13.91-45.73-9.6,11.91-13.33,21.62-14.29,37.33-.73,11.74.56,21.16,4.43,30a240,240,0,0,1-31.25-24.1c9-8.66,13.57-17,17-30.56,4.61-18.1,3.31-31.18-4.75-47.83-11.7,9.5-17.22,18.18-21.22,33.32-3.66,13.85-3.67,25,.3,36.77a228.16,228.16,0,0,1-29-36.14c11.3-6.69,17.67-13.94,23.91-26.91,8-16.68,9.3-29.76,4.64-47.85-13.29,6.69-20.37,13.95-27.22,27.87-6.7,13.62-8.73,25.12-6.45,38.65a251.44,251.44,0,0,1-20.73-44.79c11.74-4,19.2-9.67,27.58-20.64,11.08-14.51,14.86-27.05,13.81-45.77-14.29,3.58-22.63,9.1-32,21.19-8.25,10.62-12.48,20.41-13.55,32.24a315.86,315.86,0,0,1-9.65-44.56c11.09-1.52,19.09-5.45,28.78-13.78,13.66-11.73,19.79-23.15,22.39-41.69-14.68.32-23.9,3.86-35.44,13.59-8.67,7.31-14.34,14.68-17.89,23.76Q87.1,408.77,86.89,391c0-2.25,0-4.5,0-6.73,10.83.85,19.28-1.25,30.17-7.12,15.63-8.43,23.83-18.23,30-35.79-14.42-3-24.13-1.56-37.3,5.39C99.84,352,92.86,358,87.63,366a297.34,297.34,0,0,1,5.65-40.59c10.69,3.42,19.47,3.3,31.46-.08,16.93-4.76,26.85-12.5,36.27-28.32-13.53-6.1-23.3-6.9-37.53-3-11.14,3-19.33,7.53-26.19,14.78a284.37,284.37,0,0,1,14-39.48c9.89,5.85,18.55,7.73,31,7.1,17.48-.89,28.69-6.25,41-19.62-12.05-9-21.46-12-36.12-11.34-11.6.48-20.55,3.11-28.73,8.78a281.75,281.75,0,0,1,21.68-35.57c8.5,7.86,16.58,11.62,28.88,13.77,17.27,3,29.27.27,43.87-10.06-10-11.48-18.66-16.46-33.13-19.14-11.28-2.09-20.44-1.55-29.42,2a284,284,0,0,1,27.82-29.68c6.77,9.5,13.93,14.94,25.48,19.76,16.3,6.83,28.58,6.81,44.87-.06-7.59-13.46-15.07-20.25-28.69-26.09-10.59-4.54-19.62-6.07-29-4.6a285.8,285.8,0,0,1,32.66-23.17c4.8,11,10.77,18,21.26,25.39,14.62,10.29,26.64,13,43.89,9.93-4.81-14.86-10.8-23.18-23-31.92-9.9-7.11-18.79-10.62-28.83-11a293.61,293.61,0,0,1,37.43-16.9c2.5,12.72,7,21.19,16.2,31.17,12.31,13.33,23.53,18.66,41,19.49-1.83-15.61-6.08-25.08-16.31-36.35-9.39-10.35-18.39-15.93-29.95-18.12,7.24-2.35,14.61-4.46,22.09-6.27l-11.43-2.63c-4.78,1.16-9.49,2.44-14.15,3.8,7.09-4.92,12.2-11,17.46-20.31,9.09-16,11.2-29,7.73-47.37-13.69,5.67-21.23,12.39-29,25.75-8.9,15.41-11.15,28.36-7.8,45.56a292.56,292.56,0,0,0-41.24,17.45c5.71-6.27,9.42-13.28,12.68-23.24,5.78-17.71,5.34-30.87-1.63-48.07-12.29,8.6-18.36,16.84-23.33,31.65-5.67,16.87-5.43,30,1,45.82a274.34,274.34,0,0,0-35.37,24.26c3.48-6.66,5.41-13.77,6.52-23.08,2.22-18.61-.76-31.38-10.91-46.65-10.35,11.15-14.7,20.57-16.69,36.15-2.22,17.4.4,30,9.28,43.7a266,266,0,0,0-28.81,30.65c1.69-6.7,2.05-13.61,1.4-22.16-1.44-18.7-6.83-30.52-19.73-43.21-7.95,13.22-10.38,23.4-9.3,39.09,1.19,17.31,6.08,28.94,17.15,40.27a273.8,273.8,0,0,0-21.86,37.29c.42-7.1-.56-14.06-2.91-22.48-5-18-12.61-28.32-27.67-37.86C73.4,205.9,73,216.4,77.1,231.51c4.56,16.85,11.71,27.19,25,35.85a294.11,294.11,0,0,0-14.23,44.48c-.63-8.37-3-15.81-7.57-24.75-8.4-16.45-17.82-24.9-34.41-30.87-2.25,15.55-.6,25.9,6.33,39.76,7.95,15.9,17.23,24.46,32.67,30a330,330,0,0,0-5.4,51c-2-10.29-5.93-18.12-13.33-27.33-11.41-14.23-22.26-20.4-39.64-22.54.81,15.71,4.42,25.48,13.9,37.49,11.11,14.1,22.11,20.37,38.93,22.14,0,1.46,0,2.92,0,4.39a415.54,415.54,0,0,0,2.9,45.33c-3.91-9-9.19-15.46-17.8-22.49-13.92-11.36-25.73-15-43.15-13.2C25.17,416,30.6,424.69,42.2,434.33c13.39,11.14,25.2,14.89,41.58,13.08a332.36,332.36,0,0,0,9.3,42.87c-4.69-5.23-10.24-9.18-17.79-13-15.83-8-28.08-8.91-44.77-3.3,6.7,14,13.71,21.34,26.92,28.19,14.48,7.51,26.28,8.82,40.84,4.3a273.37,273.37,0,0,0,16,36.57,60.61,60.61,0,0,0-16.1-6.24c-17-4.33-29.18-2.47-44.42,6.75,9.26,12.2,17.55,17.81,31.8,21.57,15,3.95,26.47,2.87,39.2-4a246.92,246.92,0,0,0,23.41,31.08,60.69,60.69,0,0,0-16.1-2.27c-17.49-.43-29,4.08-42.14,16.51,11.43,9.86,20.62,13.5,35.29,14,15.55.52,26.61-3.14,37.81-12.86a254.88,254.88,0,0,0,31.87,25.7c-6-.83-12-.44-19.37,1-17.19,3.48-27.6,10.47-38,25.54,13.1,7.11,22.79,8.63,37.24,5.85,16-3.09,26.28-9.55,35.66-22.62a293.77,293.77,0,0,0,36.82,18.23,62.92,62.92,0,0,0-14.44,4.75c-16.14,7.25-25,16.4-32.24,33.46,14.19,4,24,3.37,37.56-2.58,14.33-6.28,23-14.39,29.56-28q15.74,5.26,32.22,9.07c-1.43,1-2.88,2-4.38,3.17-14.21,11-20.88,22-24.39,40.38,14.67.51,24.06-2.51,36.05-11.58,10.3-7.78,16.69-15.87,20.6-26.61q17.05,2.64,34.62,3.9a71.71,71.71,0,0,1,15.5,2.84C355.3,705,335.39,725.81,314,739.45l17.11,7.65c23.88-15.17,40.65-37.26,63-50,22.4,12.75,39.2,34.9,63.13,50.12l17.11-7.66c-21.5-13.67-41.46-34.55-64.08-49.5a71.53,71.53,0,0,1,15.7-2.89q17.53-1.26,34.62-3.91c3.91,10.75,10.3,18.84,20.59,26.63,12,9.06,21.38,12.07,36.06,11.57-3.51-18.38-10.19-29.44-24.4-40.38-1.5-1.15-2.95-2.21-4.38-3.18q16.47-3.79,32.22-9.06c6.53,13.63,15.23,21.75,29.56,28,13.59,5.94,23.38,6.62,37.56,2.58-7.27-17.06-16.09-26.22-32.24-33.46A63.47,63.47,0,0,0,541,661.21,292.48,292.48,0,0,0,577.87,643c9.37,13.06,19.68,19.53,35.66,22.61,14.44,2.79,24.14,1.26,37.24-5.85-10.43-15.06-20.83-22.06-38-25.53-7.32-1.48-13.41-1.88-19.36-1.05a254.71,254.71,0,0,0,31.87-25.7c11.19,9.73,22.25,13.39,37.8,12.86,14.67-.5,23.86-4.15,35.29-14-13.11-12.42-24.65-16.93-42.14-16.51a60.67,60.67,0,0,0-16.09,2.27A246.92,246.92,0,0,0,663.52,561c12.72,6.89,24.19,8,39.19,4,14.26-3.75,22.54-9.37,31.81-21.57-15.24-9.21-27.4-11.07-44.43-6.75A61,61,0,0,0,674,542.93a272.25,272.25,0,0,0,16-36.57c14.55,4.52,26.35,3.22,40.83-4.29,13.22-6.86,20.23-14.18,26.93-28.19C741,468.26,728.76,469.16,712.94,477.18Z"/><polygon class="cls-5" points="455.54 102.51 459.53 159.33 514.81 145.57 462 166.93 492.17 215.25 455.54 171.62 418.91 215.25 449.08 166.93 396.27 145.57 451.55 159.33 455.54 102.51"/></g></g></svg>