<svg xmlns="http://www.w3.org/2000/svg" viewBox="0 0 196.68 239.28"><defs><style>.cls-1{fill:#99bfa3;}</style></defs><title>selo</title><g id="Camada_2" data-name="Camada 2"><g id="Camada_1-2" data-name="Camada 1"><path class="cls-1" d="M31.68,31.58c4.48.33,9,.58,13.44,1,3.62.36,5.57-1,6.29-4.66,1-4.9,2.24-9.74,3.56-14.56s3.44-6,8.1-3.84c4.82,2.25,9.48,4.88,14.08,7.56C80,18.77,82,18.34,83.88,15.64c3-4.21,6.14-8.3,9.37-12.33,3.61-4.5,6.41-4.39,10,.2,3.19,4.06,6.47,8.06,9.45,12.27,1.82,2.58,3.54,3,6.25,1.37,4.57-2.74,9.23-5.36,14-7.72s7.21-1,8.56,4,2.66,9.65,3.53,14.56c.67,3.85,2.68,4.93,6.24,4.62,5.13-.46,10.29-.91,15.44-1s6.61,1.45,5.88,6.64S171.15,48.41,170,53.43c-.89,3.8.43,5.54,3.94,6.58,4.47,1.32,8.86,2.91,13.26,4.48,5.94,2.12,6.8,4.77,3.29,10.16-2.64,4-5.24,8.13-8.14,12-2.19,2.89-1.75,5,.82,7.27,3.75,3.3,7.46,6.65,11,10.21,3.9,4,3.34,7.17-1.38,10-4.4,2.7-8.69,5.59-13.21,8.07-2.66,1.47-3,3.13-1.88,5.7,2.12,4.89,4.23,9.79,6.09,14.78,1.93,5.2.59,7.42-4.92,8.35-4.75.81-9.55,1.45-14.34,2-3.56.4-5.27,1.95-5.24,5.78,0,5.16-.4,10.32-.74,15.47-.3,4.51-2.56,6.34-7,5.29a85.38,85.38,0,0,1-13.39-4c-5.07-2.13-7.58-.47-9.39,4.3A128.78,128.78,0,0,1,123,192.1c-2.1,4.18-5.17,5-8.92,2.09-4.22-3.24-8.31-6.68-12.23-10.29-2.33-2.14-4.26-2.13-6.53-.16C91.59,187,87.83,190.3,84,193.48c-4.79,3.94-7.91,3.24-10.56-2.26-1.87-3.9-3.89-7.75-5.41-11.79-1.59-4.2-3.78-5.76-8.28-3.94a101.74,101.74,0,0,1-12.42,3.78c-7,1.81-9.09.1-9.19-7.26,0-4-.28-8,0-12,.29-4.76-2-6.57-6.41-6.94s-9-.86-13.39-1.6c-6.19-1-7.48-3.57-5.07-9.48,1.89-4.62,3.77-9.26,5.87-13.79,1.25-2.7.53-4.33-1.9-5.74q-6-3.52-11.94-7.3c-6.69-4.29-6.87-6.53-1.05-12.27a116.54,116.54,0,0,1,9.08-8.58c3.23-2.57,3.09-4.83.76-7.88-2.94-3.83-5.62-7.86-8.25-11.91C2.66,69.71,3.54,67,8.92,64.94c4.81-1.85,9.7-3.55,14.59-5.18,2.93-1,3.81-2.66,3.1-5.7C25.55,49.52,24.83,44.9,24,40.31,22.72,32.92,24.12,31.34,31.68,31.58Zm10.64,68.61a56,56,0,0,0,56.45,56.36c30.75,0,56.35-25.65,56.29-56.36s-25.45-56.32-55.8-56.33C67.16,43.85,42.29,68.45,42.32,100.19Z"/><path class="cls-1" d="M141.42,209.6c0,7.66.11,15.33,0,23-.12,6.54-3.52,8.37-9.08,4.94-9.77-6.05-19.57-12.07-29.15-18.41-3.49-2.31-6.22-2.06-9.53.12-9,5.95-18.21,11.7-27.33,17.54-2.4,1.53-4.85,3.42-7.82,2-3.28-1.57-3.1-4.86-3.1-7.86q0-20.74,0-41.5a24,24,0,0,1,.32-4c.51-2.92,1.9-5.05,5.26-4.85s4.36,2.7,4.37,5.58c.07,11,0,22,.1,33,0,1.73-1,4.11.85,5.08s3.28-1.06,4.77-2c7.46-4.73,14.94-9.41,22.28-14.31,3.7-2.47,7-2.32,10.6.08,7.78,5.15,15.72,10,23.54,15.14,3.14,2.06,4.63,2,4.56-2.38-.17-10.83-.08-21.67,0-32.5,0-3.46-.59-7.86,4.52-7.82s4.91,4.42,4.92,8.14v21Z"/><path class="cls-1" d="M93.49,129a9.49,9.49,0,0,1-7.89-3.22c-6.89-7-13.91-13.87-20.8-20.88-4.6-4.67-5-11.7-1.17-15.72,4.26-4.41,11-4.23,16.11.62,3.64,3.42,7.22,6.92,10.58,10.6,2.25,2.46,3.86,2.83,6.4.21,8.24-8.47,16.66-16.77,25.1-25,5.19-5.09,11.92-4.86,16.18.34A10.23,10.23,0,0,1,137.25,90C125.31,102.27,113.1,114.3,101,126.4A9.35,9.35,0,0,1,93.49,129Z"/></g></g></svg>