<?xml version="1.0" encoding="utf-8"?>
<!-- Generator: Adobe Illustrator 22.1.0, SVG Export Plug-In . SVG Version: 6.00 Build 0)  -->
<svg version="1.1" id="Camada_1" xmlns="http://www.w3.org/2000/svg" xmlns:xlink="http://www.w3.org/1999/xlink" x="0px" y="0px"
	 viewBox="0 0 1010.6 184.7" style="enable-background:new 0 0 1010.6 184.7;" xml:space="preserve">
<style type="text/css">
	.st0{fill:#FFCC00;}
	.st1{fill:#FFE680;}
	.st2{fill:#FFDD55;}
	.st3{fill:#FFD42A;}
</style>
<g>
	<path class="st0" d="M565.2,184.7l-60-31.6l-60,31.5l11.5-66.8l-48.6-47.3l67.1-9.7l30-60.8l30,60.8l67.1,9.8l-48.6,47.3
		L565.2,184.7z"/>
	<path class="st1" d="M535.4,60.4c-30.4,41.4-30.7,41.8-30.7,41.8l97.4-31.9L535.4,60.4z"/>
	<path class="st2" d="M505.2,101.3v51.9l-60.6,31.1L505.2,101.3z M505.2,101.3l59.6,81.5l-11.2-66L505.2,101.3z"/>
	<path class="st1" d="M408.5,70.4l96.7,30.9l-29.9-40.8L408.5,70.4z"/>
	<path class="st2" d="M505.2,101.3V0.1L535,60.5L505.2,101.3z"/>
	<path class="st3" d="M445.2,183.6l11.2-66.6l48.8-15.7L445.2,183.6z"/>
</g>
<g>
	<path class="st0" d="M769.4,184.7l-60-31.6l-60,31.5l11.5-66.8l-48.5-47.3l67.1-9.7l30-60.8l30,60.8l67.1,9.8L758,117.9
		L769.4,184.7z"/>
	<path class="st1" d="M739.6,60.4c-30.4,41.4-30.7,41.8-30.7,41.8l97.4-31.9L739.6,60.4z"/>
	<path class="st2" d="M709.4,101.3v51.9l-60.6,31.1L709.4,101.3z M709.4,101.3l59.6,81.5l-11.2-66L709.4,101.3z"/>
	<path class="st1" d="M612.7,70.4l96.7,30.9l-29.9-40.8L612.7,70.4z"/>
	<path class="st2" d="M709.4,101.3V0.1l29.8,60.4L709.4,101.3z"/>
	<path class="st3" d="M649.4,183.6l11.3-66.5l48.8-15.7L649.4,183.6z"/>
</g>
<g>
	<path class="st0" d="M973.7,184.7l-60-31.6l-60,31.5l11.5-66.8l-48.5-47.3l67.1-9.7l30-60.8l30,60.8l67.1,9.8l-48.6,47.3
		L973.7,184.7z"/>
	<path class="st1" d="M943.9,60.4c-30.4,41.4-30.7,41.8-30.7,41.8l97.4-31.9L943.9,60.4z"/>
	<path class="st2" d="M913.7,101.3v51.9l-60.6,31.1L913.7,101.3z M913.7,101.3l59.6,81.5l-11.2-66L913.7,101.3z"/>
	<path class="st1" d="M816.9,70.4l96.7,30.9l-29.9-40.8L816.9,70.4z"/>
	<path class="st2" d="M913.7,101.3V0.1l29.8,60.4L913.7,101.3z"/>
	<path class="st3" d="M853.6,183.6l11.3-66.5l48.8-15.7L853.6,183.6z"/>
</g>
<g>
	<path class="st0" d="M361,184.7l-60-31.6l-60,31.5l11.5-66.8L204,70.5l67.1-9.7l30-60.8l30,60.8l67.1,9.8l-48.6,47.3L361,184.7z"/>
	<path class="st1" d="M331.2,60.4c-30.4,41.4-30.7,41.8-30.7,41.8l97.4-31.9L331.2,60.4z"/>
	<path class="st2" d="M301,101.3v51.9l-60.6,31.1L301,101.3z M301,101.3l59.6,81.5l-11.2-66L301,101.3z"/>
	<path class="st1" d="M204.3,70.4l96.7,30.9l-29.9-40.8L204.3,70.4z"/>
	<path class="st2" d="M301,101.3V0.1l29.8,60.4L301,101.3z"/>
	<path class="st3" d="M241,183.6l11.3-66.5l48.8-15.7L241,183.6z"/>
</g>
<g>
	<path class="st0" d="M156.8,184.7l-60-31.6l-60,31.5l11.5-66.8L-0.2,70.5l67.1-9.7L96.9,0l30,60.8l67.1,9.8l-48.6,47.3L156.8,184.7
		z"/>
	<path class="st1" d="M127,60.4c-30.4,41.4-30.7,41.8-30.7,41.8l97.4-31.9L127,60.4z"/>
	<path class="st2" d="M96.8,101.3v51.9l-60.6,31.1L96.8,101.3z M96.8,101.3l59.6,81.5l-11.2-66L96.8,101.3z"/>
	<path class="st1" d="M0,70.4l96.7,30.9L66.8,60.5L0,70.4z"/>
	<path class="st2" d="M96.8,101.3V0.1l29.8,60.4L96.8,101.3z"/>
	<path class="st3" d="M36.7,183.6L48,117.1l48.8-15.7L36.7,183.6z"/>
</g>
</svg>
