<svg xmlns="http://www.w3.org/2000/svg" viewBox="0 0 727.44 466.92"><defs><style>.cls-1,.cls-7{fill:#92e3a9;}.cls-2,.cls-5{fill:#fff;}.cls-2{opacity:0.8;}.cls-3{opacity:0.2;}.cls-4{opacity:0.1;}.cls-10,.cls-11,.cls-12,.cls-13,.cls-5,.cls-7,.cls-8,.cls-9{stroke:#263238;stroke-linecap:round;stroke-linejoin:round;}.cls-6,.cls-9{fill:#263238;}.cls-8{fill:#737373;}.cls-10,.cls-11{fill:none;}.cls-11{stroke-width:2px;}.cls-12{fill:#7d7d7d;}.cls-13{fill:#636363;}</style></defs><title>404</title><g id="Camada_2" data-name="Camada 2"><g id="Background_Simple" data-name="Background Simple"><path class="cls-1" d="M718.45,196.49C701.54,119.72,642.72,59.13,562.62,38.83c-21.06-5.33-43.45-8-65.74-5.73-91.09,9.38-199.75,70.67-256.13,83.52S118.26,78.07,43.28,157-14.37,418.6,135.55,454.39s233.36-52.31,300-33,185.81,11,256.2-45.89C733.45,341.71,733.12,263.11,718.45,196.49Z"/><path class="cls-2" d="M718.45,196.49C701.54,119.72,642.72,59.13,562.62,38.83c-21.06-5.33-43.45-8-65.74-5.73-91.09,9.38-199.75,70.67-256.13,83.52S118.26,78.07,43.28,157-14.37,418.6,135.55,454.39s233.36-52.31,300-33,185.81,11,256.2-45.89C733.45,341.71,733.12,263.11,718.45,196.49Z"/></g><g id="Bricks"><rect class="cls-3" x="366.85" y="214.28" width="30.88" height="12.5"/><rect class="cls-3" x="355.09" y="169.8" width="30.88" height="12.5"/><rect class="cls-3" x="243.35" y="213.91" width="30.88" height="12.5"/><rect class="cls-3" x="288.2" y="126.95" width="30.88" height="12.5"/><rect class="cls-3" x="322.01" y="126.95" width="30.88" height="12.5"/><rect class="cls-3" x="190.42" y="306.32" width="30.88" height="12.5"/><rect class="cls-3" x="174.25" y="321.76" width="30.88" height="12.5"/><rect class="cls-4" x="338.18" y="187.08" width="30.88" height="12.5"/><rect class="cls-4" x="384.5" y="257.28" width="30.88" height="12.5"/><rect class="cls-4" x="203.66" y="276.4" width="30.88" height="12.5"/><rect class="cls-4" x="238.94" y="276.4" width="30.88" height="12.5"/><rect class="cls-4" x="241.88" y="258.75" width="30.88" height="12.5"/><rect class="cls-4" x="373.47" y="187.08" width="30.88" height="12.5"/><rect class="cls-3" x="357.95" y="87.56" width="30.88" height="12.5"/><rect class="cls-3" x="346.19" y="43.08" width="30.88" height="12.5"/><rect class="cls-4" x="329.28" y="60.36" width="30.88" height="12.5"/><rect class="cls-4" x="364.56" y="60.36" width="30.88" height="12.5"/><rect class="cls-3" x="281.58" y="320.5" width="30.88" height="12.5"/><rect class="cls-4" x="264.67" y="337.78" width="30.88" height="12.5"/><rect class="cls-4" x="299.96" y="337.78" width="30.88" height="12.5"/><rect class="cls-3" x="131.9" y="164.96" width="30.88" height="12.5"/><rect class="cls-4" x="115" y="182.23" width="30.88" height="12.5"/><rect class="cls-4" x="150.28" y="182.23" width="30.88" height="12.5"/><rect class="cls-3" x="119.85" y="258.02" width="30.88" height="12.5"/><rect class="cls-4" x="256.59" y="198.26" width="30.88" height="12.5"/><rect class="cls-4" x="210.27" y="321.03" width="30.88" height="12.5"/><rect class="cls-4" x="305.84" y="111.51" width="30.88" height="12.5"/><rect class="cls-3" x="102.21" y="216.64" width="30.88" height="12.5"/><rect class="cls-4" x="119.85" y="201.2" width="30.88" height="12.5"/><rect class="cls-4" x="198.51" y="126.06" width="30.88" height="12.5"/><rect class="cls-3" x="305.84" y="214.28" width="30.88" height="12.5"/><rect class="cls-3" x="472.24" y="214.28" width="30.88" height="12.5" transform="translate(975.36 441.05) rotate(180)"/><rect class="cls-3" x="484.01" y="169.8" width="30.88" height="12.5" transform="translate(998.89 352.1) rotate(180)"/><rect class="cls-3" x="595.75" y="213.91" width="30.88" height="12.5" transform="translate(1222.37 440.32) rotate(180)"/><rect class="cls-3" x="550.9" y="126.95" width="30.88" height="12.5" transform="translate(1132.68 266.4) rotate(180)"/><rect class="cls-3" x="517.09" y="126.95" width="30.88" height="12.5" transform="translate(1065.05 266.4) rotate(180)"/><rect class="cls-4" x="500.91" y="187.08" width="30.88" height="12.5" transform="translate(1032.7 386.65) rotate(180)"/><rect class="cls-4" x="454.6" y="257.28" width="30.88" height="12.5" transform="translate(940.08 527.06) rotate(180)"/><rect class="cls-4" x="635.44" y="276.4" width="30.88" height="12.5" transform="translate(1301.76 565.29) rotate(180)"/><rect class="cls-4" x="600.16" y="276.4" width="30.88" height="12.5" transform="translate(1231.19 565.29) rotate(180)"/><rect class="cls-4" x="597.22" y="258.75" width="30.88" height="12.5" transform="translate(1225.31 530) rotate(180)"/><rect class="cls-4" x="465.63" y="187.08" width="30.88" height="12.5" transform="translate(962.13 386.65) rotate(180)"/><rect class="cls-3" x="224.84" y="370.23" width="30.88" height="12.5" transform="translate(480.55 752.95) rotate(180)"/><rect class="cls-4" x="241.75" y="387.5" width="30.88" height="12.5" transform="translate(514.37 787.5) rotate(180)"/><rect class="cls-4" x="206.46" y="387.5" width="30.88" height="12.5" transform="translate(443.8 787.5) rotate(180)"/><rect class="cls-3" x="75.39" y="370.23" width="30.88" height="12.5" transform="translate(181.65 752.95) rotate(180)"/><rect class="cls-4" x="92.29" y="387.5" width="30.88" height="12.5" transform="translate(215.46 787.5) rotate(180)"/><rect class="cls-4" x="57.01" y="387.5" width="30.88" height="12.5" transform="translate(144.89 787.5) rotate(180)"/><rect class="cls-3" x="557.52" y="320.5" width="30.88" height="12.5" transform="translate(1145.91 653.5) rotate(180)"/><rect class="cls-4" x="574.43" y="337.78" width="30.88" height="12.5" transform="translate(1179.73 688.05) rotate(180)"/><rect class="cls-4" x="539.14" y="337.78" width="30.88" height="12.5" transform="translate(1109.16 688.05) rotate(180)"/><rect class="cls-4" x="582.51" y="198.26" width="30.88" height="12.5" transform="translate(1195.9 409.02) rotate(180)"/><rect class="cls-4" x="628.83" y="321.03" width="30.88" height="12.5" transform="translate(1288.53 654.55) rotate(180)"/><rect class="cls-4" x="478.21" y="338.6" width="30.88" height="12.5" transform="translate(987.3 689.69) rotate(180)"/><rect class="cls-4" x="442.93" y="338.6" width="30.88" height="12.5" transform="translate(916.73 689.69) rotate(180)"/><rect class="cls-3" x="400.29" y="382.7" width="30.88" height="12.5" transform="translate(831.46 777.9) rotate(180)"/><rect class="cls-4" x="664.06" y="399.98" width="30.88" height="12.5" transform="translate(1359 812.45) rotate(180)"/><rect class="cls-4" x="664.06" y="368.01" width="30.88" height="12.5" transform="translate(1359 748.53) rotate(180)"/><rect class="cls-4" x="679.88" y="383.56" width="30.88" height="12.5" transform="translate(1390.64 779.63) rotate(180)"/><rect class="cls-4" x="644.47" y="383.56" width="30.88" height="12.5" transform="translate(1319.81 779.63) rotate(180)"/><rect class="cls-4" x="471.6" y="383.23" width="30.88" height="12.5" transform="translate(974.07 778.95) rotate(180)"/><rect class="cls-3" x="512.05" y="424.67" width="30.88" height="12.5"/><rect class="cls-4" x="495.15" y="441.95" width="30.88" height="12.5"/><rect class="cls-4" x="530.43" y="441.95" width="30.88" height="12.5"/><rect class="cls-3" x="614.86" y="413.65" width="30.88" height="12.5"/><rect class="cls-4" x="597.95" y="441.95" width="30.88" height="12.5"/><rect class="cls-4" x="633.23" y="441.95" width="30.88" height="12.5"/><rect class="cls-4" x="61.39" y="454.43" width="30.88" height="12.5"/><rect class="cls-4" x="162.67" y="438.01" width="30.88" height="12.5"/><rect class="cls-4" x="105.66" y="422.46" width="30.88" height="12.5"/><rect class="cls-4" x="89.84" y="438.01" width="30.88" height="12.5"/><rect class="cls-4" x="125.25" y="438.01" width="30.88" height="12.5"/><rect class="cls-4" x="533.26" y="111.51" width="30.88" height="12.5" transform="translate(1097.39 235.53) rotate(180)"/><rect class="cls-4" x="516.85" y="58.82" width="30.88" height="12.5" transform="translate(1064.57 130.13) rotate(180)"/><rect class="cls-4" x="640.59" y="126.06" width="30.88" height="12.5" transform="translate(1312.05 264.62) rotate(180)"/><rect class="cls-3" x="533.26" y="214.28" width="30.88" height="12.5" transform="translate(1097.39 441.05) rotate(180)"/><rect class="cls-3" x="188.29" y="41.21" width="30.88" height="12.5"/><rect class="cls-4" x="63.54" y="129.76" width="30.88" height="12.5"/><rect class="cls-4" x="102.05" y="140.54" width="30.88" height="12.5"/><rect class="cls-4" x="26.58" y="152.86" width="30.88" height="12.5"/><rect class="cls-4" x="82.36" y="153.42" width="30.88" height="12.5"/><rect class="cls-3" x="169.39" y="58.73" width="30.88" height="12.5"/><rect class="cls-3" x="500.15" y="41.21" width="30.88" height="12.5"/><rect class="cls-3" x="481.26" y="58.73" width="30.88" height="12.5"/></g><g id="Pipes"><path class="cls-5" d="M83.3,206.14H3.66v-13H76.8V5h13V199.64A6.5,6.5,0,0,1,83.3,206.14Z"/><path class="cls-5" d="M686.35.5V74.93H89.53v13H665.46v314.2H511.84a6.5,6.5,0,0,0-6.5,6.5v47.86h13V415.13H665.46v44h13V87.93h14.39a6.5,6.5,0,0,0,6.5-6.5V.5Z"/><rect class="cls-5" x="686.54" y="40.56" width="12.7" height="5.9"/><rect class="cls-5" x="554.9" y="405.74" width="12.7" height="5.9" transform="translate(969.93 -152.56) rotate(90)"/><rect class="cls-5" x="567.75" y="405.74" width="12.7" height="5.9" transform="translate(982.78 -165.41) rotate(90)"/><rect class="cls-5" x="22.04" y="425.83" width="209.64" height="13"/><rect class="cls-5" x="22.04" y="407.91" width="209.64" height="13"/><rect class="cls-5" x="111.47" y="408.16" width="8.97" height="12.63"/><rect class="cls-5" x="130.15" y="408.16" width="8.97" height="12.63"/><rect class="cls-5" x="111.47" y="426.07" width="8.97" height="12.63"/><rect class="cls-5" x="130.15" y="426.07" width="8.97" height="12.63"/></g><g id="Gears"><path class="cls-5" d="M260.17,165.25V148.1H249.73a48.52,48.52,0,0,0-2.22-8.34l9-5.21L248,119.71l-9,5.22a48.82,48.82,0,0,0-6.1-6.1l5.22-9-14.85-8.57-5.21,9a48.52,48.52,0,0,0-8.34-2.22V97.59H192.5V108a49.42,49.42,0,0,0-8.34,2.21l-5.21-9L164.1,109.8l5.22,9a49.42,49.42,0,0,0-6.09,6.1l-9-5.22-8.58,14.85,9,5.21a48.93,48.93,0,0,0-2.21,8.34H142v17.14h10.44a48.52,48.52,0,0,0,2.22,8.34l-9,5.21,8.57,14.85,9-5.22a50.13,50.13,0,0,0,6.1,6.09l-5.22,9L179,212.15l5.21-9a49.42,49.42,0,0,0,8.34,2.21v10.44h17.15V205.34a49.45,49.45,0,0,0,8.34-2.22l5.2,9,14.85-8.57-5.22-9a50.21,50.21,0,0,0,6.1-6.1l9,5.22,8.57-14.85-9-5.21a49.45,49.45,0,0,0,2.22-8.34Zm-59.09,23.38A31.95,31.95,0,1,1,233,156.69,31.95,31.95,0,0,1,201.08,188.63Z"/><path class="cls-5" d="M182.22,322.67V305.53H171.78a49.42,49.42,0,0,0-2.21-8.34l9-5.21L170,277.13l-9,5.22a49.42,49.42,0,0,0-6.1-6.09l5.22-9-14.85-8.58-5.21,9a49.42,49.42,0,0,0-8.34-2.21V255H114.55v10.44a49.45,49.45,0,0,0-8.34,2.22l-5.21-9-14.85,8.57,5.22,9a50.85,50.85,0,0,0-6.09,6.1l-9-5.22L67.66,292l9,5.21a49.42,49.42,0,0,0-2.21,8.34H64V322.7H74.48A48.52,48.52,0,0,0,76.7,331l-9,5.21,8.57,14.84,9-5.22a49.51,49.51,0,0,0,6.1,6.1l-5.22,9L101,369.58l5.21-9a48.52,48.52,0,0,0,8.34,2.22v10.44h17.15V362.76a49.42,49.42,0,0,0,8.34-2.21l5.2,9L160.11,361,154.89,352a48.82,48.82,0,0,0,6.1-6.1l9,5.22,8.57-14.85-9-5.21a49.45,49.45,0,0,0,2.22-8.34Zm-59.09,23.39a31.95,31.95,0,1,1,32-31.95A32,32,0,0,1,123.13,346.06Z"/><path class="cls-5" d="M617.34,320.22V308.65h-7.05a32.84,32.84,0,0,0-1.5-5.63l6.09-3.52-5.78-10L603,293a33.32,33.32,0,0,0-4.12-4.11l3.53-6.11-10-5.78-3.51,6.09a32.39,32.39,0,0,0-5.63-1.49v-7.05H571.65v7.05a33.08,33.08,0,0,0-5.63,1.5l-3.51-6.1-10,5.79L556,288.9a34,34,0,0,0-4.12,4.11l-6.1-3.52-5.79,10,6.1,3.51a33.08,33.08,0,0,0-1.5,5.63h-7.05v11.58h7.05a33.08,33.08,0,0,0,1.5,5.63L540,329.38l5.79,10,6.1-3.53A33.4,33.4,0,0,0,556,340l-3.52,6.1,10,5.79,3.52-6.1a33.08,33.08,0,0,0,5.63,1.5v7h11.57v-7a33.08,33.08,0,0,0,5.63-1.5l3.52,6.09,10-5.79-3.52-6.1a33.32,33.32,0,0,0,4.11-4.12l6.11,3.52,5.78-10-6.09-3.52a33.06,33.06,0,0,0,1.49-5.63ZM577.45,336A21.57,21.57,0,1,1,599,314.44,21.57,21.57,0,0,1,577.45,336Z"/><path class="cls-5" d="M560.76,156.27V144.7h-7a32.16,32.16,0,0,0-1.49-5.63l6.09-3.52-5.79-10-6.1,3.52a34,34,0,0,0-4.12-4.11l3.52-6.1-10-5.79-3.52,6.09a34,34,0,0,0-5.63-1.49V110.6H515.08v7.05a32.84,32.84,0,0,0-5.63,1.5l-3.52-6.09-10,5.79,3.52,6.1a33.32,33.32,0,0,0-4.11,4.12l-6.11-3.53-5.78,10,6.09,3.52a31.93,31.93,0,0,0-1.49,5.63h-7v11.57h7a33.08,33.08,0,0,0,1.5,5.63l-6.1,3.52,5.79,10,6.11-3.52a34,34,0,0,0,4.11,4.11l-3.52,6.1,10,5.79,3.52-6.09a34,34,0,0,0,5.63,1.49v7h11.58v-7a33.08,33.08,0,0,0,5.63-1.5l3.51,6.09,10-5.79-3.53-6.1a33.4,33.4,0,0,0,4.12-4.12l6.1,3.53,5.79-10-6.1-3.52a32.84,32.84,0,0,0,1.5-5.63Zm-39.89,15.79a21.57,21.57,0,1,1,21.57-21.56A21.57,21.57,0,0,1,520.87,172.06Z"/></g><g id="Text"><path class="cls-6" d="M141.64,383.17V303H37.28V251.66L126.79,39.55h76.36V252.94h33.09V303H203.15v80.18ZM89,252.94h52.61V107Z"/><path class="cls-6" d="M203.15,383.67H141.64a.5.5,0,0,1-.5-.5V303.49H37.28a.5.5,0,0,1-.5-.5V251.66a.43.43,0,0,1,0-.19L126.33,39.35a.51.51,0,0,1,.46-.3h76.36a.5.5,0,0,1,.5.5V252.44h32.59a.5.5,0,0,1,.5.5V303a.5.5,0,0,1-.5.5H203.65v79.68A.5.5,0,0,1,203.15,383.67Zm-61-1h60.51V303a.51.51,0,0,1,.5-.5h32.59V253.44H203.15a.51.51,0,0,1-.5-.5V40.05H127.12L37.78,251.76v50.73H141.64a.5.5,0,0,1,.5.5Zm-.5-129.23H89a.47.47,0,0,1-.4-.22.49.49,0,0,1-.07-.45l52.61-145.94a.5.5,0,0,1,1,.17V252.94A.5.5,0,0,1,141.64,253.44Zm-51.89-1h51.39V109.86Z"/><path class="cls-6" d="M359.27,389.11q-31,0-51.33-12.72a79.12,79.12,0,0,1-30.55-35q-10.18-22.27-10.18-51.55v-154q0-30.12,9.76-52.82a76.09,76.09,0,0,1,30.12-35.42q20.36-12.73,52.18-12.73,31.39,0,51.54,12.73A76.59,76.59,0,0,1,440.72,83q9.75,22.69,9.76,52.82v154q0,29.28-10.18,51.55a79.12,79.12,0,0,1-30.55,35Q389.4,389.11,359.27,389.11Zm0-57.69q11.46,0,16.54-7.21A41.34,41.34,0,0,0,382.6,307a110.72,110.72,0,0,0,1.7-18.46V137.12a135.22,135.22,0,0,0-1.49-19.51A41.21,41.21,0,0,0,376.24,100q-5.1-7.41-17-7.42T342.09,100a39.58,39.58,0,0,0-6.79,17.61,135.16,135.16,0,0,0-1.48,19.51V288.57A110.65,110.65,0,0,0,335.51,307a38.48,38.48,0,0,0,7.21,17.18Q348.24,331.42,359.27,331.42Z"/><path class="cls-6" d="M359.27,389.61c-20.65,0-38-4.3-51.6-12.8a80,80,0,0,1-30.73-35.21c-6.79-14.85-10.23-32.26-10.23-51.76v-154c0-20.07,3.3-37.9,9.8-53a77,77,0,0,1,30.31-35.65c13.6-8.49,31.24-12.8,52.45-12.8,20.92,0,38.35,4.31,51.81,12.81a77.42,77.42,0,0,1,30.1,35.64c6.5,15.13,9.8,33,9.8,53v154c0,19.5-3.44,36.91-10.23,51.76A80,80,0,0,1,410,376.81C396.43,385.31,379.35,389.61,359.27,389.61Zm0-354.23c-21,0-38.48,4.26-51.92,12.65a76,76,0,0,0-29.92,35.2c-6.45,15-9.72,32.69-9.72,52.62v154c0,19.35,3.41,36.63,10.14,51.34A78.88,78.88,0,0,0,308.2,376c13.43,8.4,30.61,12.65,51.07,12.65,19.89,0,36.79-4.25,50.22-12.65a78.88,78.88,0,0,0,30.35-34.78c6.73-14.71,10.14-32,10.14-51.34v-154c0-19.91-3.27-37.62-9.72-52.62A76.5,76.5,0,0,0,410.55,48C397.25,39.64,380,35.38,359.27,35.38Zm0,296.54c-7.49,0-13.19-2.49-16.94-7.41a38.85,38.85,0,0,1-7.31-17.4,111.25,111.25,0,0,1-1.7-18.54V137.12a135.66,135.66,0,0,1,1.49-19.59,40.15,40.15,0,0,1,6.87-17.82c3.62-5.07,9.54-7.63,17.59-7.63s13.9,2.57,17.38,7.64a41.85,41.85,0,0,1,6.66,17.81,136.72,136.72,0,0,1,1.49,19.59V288.57a112,112,0,0,1-1.7,18.54,42.14,42.14,0,0,1-6.88,17.38C372.75,329.42,367,331.92,359.27,331.92Zm0-238.84c-7.71,0-13.35,2.42-16.78,7.21a39.4,39.4,0,0,0-6.7,17.39,135,135,0,0,0-1.47,19.44V288.57A110.24,110.24,0,0,0,336,306.94a38.05,38.05,0,0,0,7.12,17c3.55,4.66,9,7,16.15,7,7.43,0,12.86-2.36,16.14-7a41.18,41.18,0,0,0,6.7-17,111.07,111.07,0,0,0,1.69-18.37V137.12a136,136,0,0,0-1.48-19.44,40.94,40.94,0,0,0-6.49-17.4C372.54,95.5,367,93.08,359.27,93.08Z"/><path class="cls-6" d="M590.47,383.17V303H486.11V251.66L575.63,39.55H652V252.94h33.09V303H652v80.18Zm-52.6-130.23h52.6V107Z"/><path class="cls-6" d="M652,383.67H590.47a.5.5,0,0,1-.5-.5V303.49H486.11a.5.5,0,0,1-.5-.5V251.66a.65.65,0,0,1,0-.19L575.16,39.35a.51.51,0,0,1,.47-.3H652a.5.5,0,0,1,.5.5V252.44h32.59a.5.5,0,0,1,.5.5V303a.5.5,0,0,1-.5.5H652.49v79.68A.5.5,0,0,1,652,383.67Zm-61-1h60.52V303a.5.5,0,0,1,.5-.5h32.59V253.44H652a.5.5,0,0,1-.5-.5V40.05H576L486.61,251.76v50.73H590.47a.5.5,0,0,1,.5.5Zm-.5-129.23h-52.6a.49.49,0,0,1-.41-.22.48.48,0,0,1-.06-.45L590,106.83a.51.51,0,0,1,.56-.32.49.49,0,0,1,.41.49V252.94A.5.5,0,0,1,590.47,253.44Zm-51.89-1H590V109.86Z"/><path class="cls-6" d="M296.82,460.05V408.24h18.74V412H301.75v19.44H313V435H301.75v21.37h13.94v3.64Z"/><path class="cls-6" d="M322.34,460.05V408.24h11.71a15.56,15.56,0,0,1,7.64,1.57,8.92,8.92,0,0,1,4,4.54,18.64,18.64,0,0,1,1.22,7.07,22.57,22.57,0,0,1-.64,5.43,10.51,10.51,0,0,1-2.18,4.35,7.42,7.42,0,0,1-4.35,2.37l7.93,26.48h-4.73l-7.61-25.46H327.2v25.46Zm4.86-29h6.59a9.86,9.86,0,0,0,5.06-1.08,6.05,6.05,0,0,0,2.55-3.2,15.52,15.52,0,0,0,.77-5.31q0-4.8-1.66-7.17t-6.59-2.36H327.2Z"/><path class="cls-6" d="M355.09,460.05V408.24H366.8a15.56,15.56,0,0,1,7.64,1.57,8.92,8.92,0,0,1,4,4.54,18.64,18.64,0,0,1,1.21,7.07,22.08,22.08,0,0,1-.64,5.43,10.38,10.38,0,0,1-2.17,4.35,7.42,7.42,0,0,1-4.35,2.37l7.93,26.48h-4.73l-7.61-25.46H360v25.46ZM360,431h6.59a9.79,9.79,0,0,0,5-1.08,6,6,0,0,0,2.56-3.2,15.77,15.77,0,0,0,.77-5.31q0-4.8-1.66-7.17t-6.59-2.36H360Z"/><path class="cls-6" d="M400.06,460.69q-5.12,0-8-2a10.63,10.63,0,0,1-4.09-5.63,26.57,26.57,0,0,1-1.19-8.29V423.27a24.5,24.5,0,0,1,1.25-8.22,10.51,10.51,0,0,1,4.16-5.4,17.34,17.34,0,0,1,15.86,0,10.36,10.36,0,0,1,4.13,5.4,25.07,25.07,0,0,1,1.21,8.22v21.56a26.28,26.28,0,0,1-1.18,8.25,10.74,10.74,0,0,1-4.06,5.6Q405.24,460.69,400.06,460.69Zm0-3.9a8.46,8.46,0,0,0,5.24-1.38,6.87,6.87,0,0,0,2.46-3.83,21.75,21.75,0,0,0,.68-5.73V422.38a21.33,21.33,0,0,0-.68-5.69,6.59,6.59,0,0,0-2.46-3.75,11.1,11.1,0,0,0-10.46,0,6.63,6.63,0,0,0-2.49,3.75,21.36,21.36,0,0,0-.67,5.69v23.47a21.78,21.78,0,0,0,.67,5.73,6.91,6.91,0,0,0,2.49,3.83A8.54,8.54,0,0,0,400.06,456.79Z"/></g><g id="Character"><path class="cls-7" d="M267.25,211.55l3.71,53.5-23.2-10.82-5.87,23.51s49.8,27.83,54.74,26.91-7.42-109.19-7.42-109.19Z"/><path class="cls-7" d="M300.68,340.63s26.72-9.18,37.15-17.94S293.59,207.9,293.59,207.9,294.42,305.16,300.68,340.63Z"/><path class="cls-8" d="M412.51,306.38l-3.09.46a2.82,2.82,0,0,1,0,.46c-.23,4-21.7,14.54-36.85,20.26-3.32,2.56-7.75,3.86-13.33,3.86h-.15c-11.7,1.13-34.17-4-39.25-7.5l-5.48,56h0c.88.44,1.78.85,2.69,1.26q17.81,7.89,42.19,7.9,28.13,0,47.75-11.1l.29-.17c.82-.47,1.64-.95,2.44-1.45,1-.61,1.92-1.23,2.85-1.87l.85-.6c.65-.45,1.3-.92,1.93-1.4.31-.22.61-.45.91-.68l1.88-1.49.76-.62c.85-.71,1.68-1.44,2.5-2.18h0C417.94,342.76,412.51,306.38,412.51,306.38Z"/><path class="cls-5" d="M292.74,241.31s24.75,60.49,25.05,62.63-2.44,15.89,1.53,19.55,30.55,9.78,41.86,7.64,48-18.64,48.27-23.83-36.36-106.63-40.94-118.85-23.22-16.5-35.74-15.28S290,182.34,284.49,190,292.74,241.31,292.74,241.31Z"/><path class="cls-5" d="M294.88,185.09s-3.06,27.8-1.22,33.61,10.17,21.77,10.17,21.77,14-17.5,16.71-19.33,28.11,14.36,28.11,14.36.92-17.41-2.75-31.77-10.08-29.95-12.22-32.7-2.14,7.34-10.08,14.06S294.88,185.09,294.88,185.09Z"/><path class="cls-5" d="M292.62,189.93a108.38,108.38,0,0,0,11.55,20.45A100.33,100.33,0,0,0,323,229.84s8.57-22.1,10.88-35.29-1.65-26.39-1.65-26.39-1.65,19.79-8.57,23.75S292.62,189.93,292.62,189.93Z"/><path class="cls-9" d="M310.74,193a140.51,140.51,0,0,1-18.12-3.09,108.38,108.38,0,0,0,11.55,20.45c.76,1.08,1.56,2.12,2.36,3.15l13.65-15.79Z"/><path class="cls-7" d="M332.2,168.16s10,40.15,13.7,70.4,12.53,119.76,12.53,119.76,27.5-7.94,41.86-18.33,18.94-17.41,18.94-17.41-23.53-103-23.53-104.49,2.45-16.81,2.45-16.81,41.55-19.55,57.44-31.47,11.91-18.33,4.27-21.38-31.46.3-44.6,4-19.86,6.11-19.86,6.11-14.67-1.22-28.11,1.83S332.2,168.16,332.2,168.16Z"/><path class="cls-5" d="M353.3,270.88c-.48,1.52-1,3.16-1.59,4.95"/><path class="cls-10" d="M358,202.88l4.7,3s-1.55,24.35-3.67,39.72a122.58,122.58,0,0,1-4.46,21.2"/><path class="cls-10" d="M349.71,173.89c3.08,5.65,7.5,14,7.5,15.17,0,1.83-4.59,10.39-4.59,10.39l2.87,1.82"/><path class="cls-5" d="M346.81,168.62s.49.87,1.25,2.25"/><path class="cls-10" d="M403.07,303.21a74,74,0,0,1-15.62,8.06c-14.36,5.5-16.8,6.42-16.8,6.42l2.14,7.33s25-4.58,36.66-17.72"/><path class="cls-5" d="M408.23,299.05a25.3,25.3,0,0,1-2.05,1.83"/><polyline class="cls-10" points="403.63 185.06 398.15 201.28 410.98 182.03"/><line class="cls-5" x1="406.09" y1="177.76" x2="404.83" y2="181.5"/><path class="cls-7" d="M294.88,185.09s3.06,55.6,6.42,82.8,8.86,94.4,8.86,94.4-10.7-.91-17.72-9.47a97.86,97.86,0,0,1-10.39-15V277.36c0-2.45-4.89-30.25-9.47-44s-11.31-29.63-7.34-36.36,16.5-16.8,21.09-18S294.57,179,294.88,185.09Z"/><path class="cls-5" d="M293.16,254.93c1.73,5.39,3.41,10.19,4.78,13.26"/><path class="cls-10" d="M282.72,195.68c-.52,4-.76,7-.37,7.43,1.23,1.23,6.11,5.5,6.11,5.5s-6.11,7.64-5.19,11.61c.6,2.61,4.63,17.76,8.72,30.95"/><path class="cls-5" d="M286,175.31s-1.61,8.76-2.75,16.45"/><line class="cls-5" x1="289.59" y1="316.56" x2="284.19" y2="314.02"/><polyline class="cls-10" points="284.19 305.77 299.16 311.88 299.16 321.05 292.31 317.83"/><path class="cls-5" d="M272.05,148.33l5.23,12.79s-6.79-7.05-8.36-.78,3.13,13.58,6.27,13.58,6.79.26,6.79.26,11,19.32,17.75,23,15.93,6.79,21.67,3.65,8.88-11.75,10.71-18.28.52-26.11.52-26.11l-9.4-38.64s6.53-2.35,6.53-6.79-15.15-5.75-15.15-5.75,6-7-1.56-8.09-32.12,13.58-32.9,14.1,4.18-9.14-2.09-5.74-13.58,20.1-12.8,24S272.05,148.33,272.05,148.33Z"/><path class="cls-8" d="M314.61,105.24s6-7-1.56-8.09-32.12,13.58-32.9,14.1,4.18-9.14-2.09-5.74-13.58,20.1-12.8,24,6.79,18.8,6.79,18.8l5.23,12.79s6,5.49,3.91,1.31-6.26-13.58-5.22-14.89,6.27-3.39,6.53-6.26-5-11.23-3.4-13.32,23.76,1.83,27.68-.52-1-8.1-1-8.1l17.49-1.56s6.53-2.35,6.53-6.79S314.61,105.24,314.61,105.24Z"/><path class="cls-5" d="M318,169.74s-2.35,4.44-6,4.7"/><path class="cls-6" d="M301.82,157.73c.73,1.57.42,3.26-.69,3.77s-2.61-.33-3.34-1.9-.41-3.26.7-3.78S301.09,156.16,301.82,157.73Z"/><ellipse class="cls-6" cx="320.43" cy="153.96" rx="2.22" ry="3.13" transform="translate(-20.23 52.31) rotate(-9.05)"/><path class="cls-5" d="M312,184.36a14.33,14.33,0,0,0,7.58-2.35"/><path class="cls-11" d="M288.76,154.33s3.66-5.22,13.58-2.09"/><path class="cls-11" d="M315.14,149.37a9.94,9.94,0,0,1,8.87-6.53"/><path class="cls-5" d="M329.76,144.15s1.83-4.18,3.92-1.57,2.87,7.84,1.56,11.23-2.09,6.27-2.09,6.27l-.52-3.66Z"/><path class="cls-5" d="M377.8,123.78s-28.72-5.22-30.55-5.22-23.24,3.92-26.37,5.22-26.89,8.1-26.37,9.66,3.39,2.09,3.39,2.09.53,2.35,8.88,3.4,27.94-1.57,28.2.26a4.56,4.56,0,0,1-1.3,3.39l2.35,4.18s8.61-1.3,11.48-3.39,11-8.62,11-8.62l17.5,1.31Z"/><path class="cls-5" d="M314.09,127.44s-11.75,5-13.58,6,3.4,3.14,6.53,2.62,15.15-5.23,17-5.75,10.19,1.57,16.19,2.35a19.92,19.92,0,0,0,11.23-1.57"/><path class="cls-7" d="M448.56,165.53a46.69,46.69,0,0,1-20.16,0c-11-2.44-40-16.8-40-16.8l-19.86-5.8,4.58-23.22s50.11,6.11,64.17,11.3,34.52,17.11,33.91,21.39-11.92,13.44-11.92,13.44"/><path class="cls-10" d="M276.46,265.36s18.39,21.07,33.9,14,23.17-52.47,23.17-52.47"/><path class="cls-10" d="M252.33,249.47s14.56,18.19,33.9,16.47,25.85-24.13,25.66-35.24"/><rect class="cls-12" x="249.59" y="236.26" width="6.48" height="30.38" transform="translate(93.24 -67.43) rotate(18.57)"/><rect class="cls-9" x="253" y="233.75" width="10.05" height="4.47" transform="translate(88.59 -69.89) rotate(18.57)"/><rect class="cls-12" x="263.14" y="240.81" width="6.48" height="30.38" transform="translate(95.4 -71.51) rotate(18.57)"/><rect class="cls-9" x="266.55" y="238.31" width="10.05" height="4.47" transform="translate(90.75 -73.96) rotate(18.57)"/><rect class="cls-9" x="247.87" y="245.46" width="21" height="23.23" transform="matrix(0.95, 0.32, -0.32, 0.95, 95.32, -68.9)"/><polygon class="cls-12" points="246.41 279.45 227.85 273.21 237.69 256.96 248.38 260.55 246.41 279.45"/><rect class="cls-13" x="224.03" y="275.79" width="19.59" height="20.79" transform="translate(103.32 -59.56) rotate(18.57)"/><rect class="cls-13" x="237.86" y="238.74" width="16.82" height="20.79" transform="translate(92.16 -65.46) rotate(18.57)"/><polygon class="cls-12" points="273.52 288.56 254.95 282.32 264.79 266.07 275.48 269.66 273.52 288.56"/><rect class="cls-13" x="251.13" y="284.9" width="19.59" height="20.79" transform="translate(107.63 -67.72) rotate(18.57)"/><rect class="cls-13" x="264.96" y="247.84" width="16.82" height="20.79" transform="translate(96.47 -73.62) rotate(18.57)"/><path class="cls-5" d="M235.3,235.29s-2.16,3.56-1.53,4.58,6.88,4.45,7.77,4.71,3.31-1,3.18-2.68-5-5.21-6.49-6.11S235.94,234.78,235.3,235.29Z"/><path class="cls-5" d="M231.87,242.33s-1,4-.14,4.83,7.87,2.28,8.79,2.26,2.88-1.93,2.28-3.47-6.26-3.57-8-4S232.33,241.66,231.87,242.33Z"/><path class="cls-5" d="M230,249.33s-1,4-.14,4.83,7.87,2.28,8.8,2.26,2.87-1.93,2.27-3.47-6.26-3.57-8-4S230.43,248.66,230,249.33Z"/><path class="cls-5" d="M230.85,256.07s-1,4-.14,4.83,7.87,2.28,8.8,2.27,2.87-1.93,2.27-3.48-6.26-3.56-8-4S231.32,255.4,230.85,256.07Z"/></g></g></svg>