<svg xmlns="http://www.w3.org/2000/svg" viewBox="0 0 405.91 359.87"><defs><style>.cls-1{fill:#c6ff00;}.cls-2{opacity:0.7;}.cls-3{fill:#fff;}</style></defs><title>backlogin</title><g id="Camada_2" data-name="Camada 2"><g id="Background_simple" data-name="Background simple"><path id="_Caminho_" data-name="&lt;Caminho&gt;" class="cls-1" d="M364.36,59.19c-24.88-56.73-84.6-78.09-131.72-40-18.39,14.86-29.88,38.51-52.41,48-21.13,8.9-47.92,6.27-70.78,11.09C60.78,88.52-4.73,127.27.27,186.85,2.46,213,20.09,242,28.79,266.42c10,28.13,16,63.3,42.47,80.12,45.39,28.85,100.13,5.26,141.05-18,22-12.5,34.11-20.19,57.8-15.91,21.94,4,41.68,18,63.12,1.4,16.09-12.47,17.41-37.75,30.92-52.58,15.22-16.72,30.66-17.94,38.56-43.07,9.59-30.48-4.53-49.53-14.09-76.78S376.08,85.91,364.36,59.19Z"/><g class="cls-2"><path id="_Caminho_2" data-name="&lt;Caminho&gt;" class="cls-3" d="M364.36,59.19c-24.88-56.73-84.6-78.09-131.72-40-18.39,14.86-29.88,38.51-52.41,48-21.13,8.9-47.92,6.27-70.78,11.09C60.78,88.52-4.73,127.27.27,186.85,2.46,213,20.09,242,28.79,266.42c10,28.13,16,63.3,42.47,80.12,45.39,28.85,100.13,5.26,141.05-18,22-12.5,34.11-20.19,57.8-15.91,21.94,4,41.68,18,63.12,1.4,16.09-12.47,17.41-37.75,30.92-52.58,15.22-16.72,30.66-17.94,38.56-43.07,9.59-30.48-4.53-49.53-14.09-76.78S376.08,85.91,364.36,59.19Z"/></g></g></g></svg>