<?xml version="1.0" encoding="utf-8"?>
<!-- Generator: Adobe Illustrator 22.1.0, SVG Export Plug-In . SVG Version: 6.00 Build 0)  -->
<svg version="1.1" id="Camada_1" xmlns="http://www.w3.org/2000/svg" xmlns:xlink="http://www.w3.org/1999/xlink" x="0px" y="0px"
	 viewBox="0 0 26 26" style="enable-background:new 0 0 26 26;" xml:space="preserve">
<style type="text/css">
	.st0{fill:#FFFFFF;}
</style>
<path class="st0" d="M14.6,8.1c0.5-0.5,1.3-0.4,1.7,0c0.4,0.5,0.4,1.2,0,1.7l-6.5,8.1c-0.5,0.5-1.2,0.5-1.7,0.1c0,0,0,0,0,0
	l-4.3-4.3c-0.5-0.5-0.5-1.2-0.1-1.7s1.2-0.5,1.7-0.1c0,0,0,0,0.1,0.1l3.4,3.4L14.6,8.1C14.6,8.1,14.6,8.1,14.6,8.1z M13.1,16.4
	l1.5,1.5c0.5,0.5,1.2,0.5,1.7,0c0,0,0,0,0,0l6.5-8.1c0.5-0.5,0.5-1.2,0-1.7s-1.2-0.5-1.7,0c0,0,0,0-0.1,0.1l-5.6,7.2l-0.8-0.8
	L13.1,16.4L13.1,16.4z"/>
</svg>
