<svg xmlns="http://www.w3.org/2000/svg" viewBox="0 0 339.99 340"><defs><style>.cls-1{fill:#e2ff00;}</style></defs><title>code</title><g id="Camada_2" data-name="Camada 2"><g id="Camada_1-2" data-name="Camada 1"><path class="cls-1" d="M170,340q-65.25,0-130.48,0c-9.91,0-19.18-2.12-26.94-8.82C3.74,323.51.11,313.52.09,302.24Q0,170,.11,37.78C.16,14.57,15.48.19,39.52.07,67.34-.07,95.17,0,123,0q88,0,176,0c10.55,0,20.55,1.76,28.82,9.15,8.56,7.65,12.09,17.51,12.1,28.58q.15,132.23,0,264.46C339.83,325.3,324.47,339.9,301,340,257.32,340.05,213.66,340,170,340Zm.32-247.75H23.82c-6.65,0-6.67,0-6.67,6.65q0,101.25,0,202.49c0,14.49,7,21.49,21.52,21.49H301.16c14.76,0,21.68-7,21.69-21.85q0-100.75,0-201.49c0-7.28,0-7.29-7.54-7.29Zm-.73-16.44H316c6.84,0,6.85,0,6.86-7,0-10.5.06-21,0-31.48-.09-12.76-7.47-20.17-20.28-20.18q-132.41,0-264.82,0c-13.25,0-20.49,7.23-20.57,20.36-.06,9.83,0,19.66,0,29.48,0,8.78,0,8.78,8.54,8.78Z"/><path class="cls-1" d="M148,275.65c-6,.18-10-5.72-7.79-12,4-11.31,8.23-22.53,12.42-33.76q14.82-39.81,29.68-79.59c3.4-9.15,6.95-12,12.66-10.05s6.64,6.88,3.37,15.7Q178.15,210.3,158,264.63a56,56,0,0,1-2.47,6A8.92,8.92,0,0,1,148,275.65Z"/><path class="cls-1" d="M218.61,169.83a8.79,8.79,0,0,1,6.33,2.53c10.35,9.4,20.74,18.76,31,28.26,4.69,4.34,4.59,9.66-.43,14.35q-15.33,14.29-31,28.22c-4.11,3.67-8.31,3.56-11.54.18-3.55-3.72-3.44-9.16.55-12.94,6.89-6.53,13.82-13,20.93-19.29,3.26-2.88,3.53-4.68-.09-7.74-7.36-6.23-14.27-13-21.26-19.66-2.62-2.5-3.51-5.64-2-9.13A7.57,7.57,0,0,1,218.61,169.83Z"/><path class="cls-1" d="M129.6,238a8.34,8.34,0,0,1-4.92,7.07c-3.28,1.62-6.22.72-8.77-1.53-6-5.28-11.92-10.65-17.84-16-4.56-4.14-9.16-8.25-13.57-12.54-5.26-5.11-5-10.17.34-15,9.4-8.47,18.73-17,28.09-25.54.74-.68,1.43-1.41,2.2-2,4.35-3.54,9.24-3.35,12.43.45,3,3.62,2.55,8.35-1.37,12-6.82,6.37-13.6,12.77-20.59,18.94-3.22,2.85-3.66,4.67,0,7.76,7,5.88,13.49,12.38,20.2,18.62C128,232.21,129.59,234.46,129.6,238Z"/><path class="cls-1" d="M49.77,55.09a27.23,27.23,0,0,1-5.4-.67c-3.9-1.09-6.29-3.9-6.26-8a7.75,7.75,0,0,1,6.68-8.11,39.06,39.06,0,0,1,13.85-.06c4,.67,6.4,3.28,6.55,7.57.15,4.14-1.64,7-5.58,8.42C56.88,55.26,54.06,55,49.77,55.09Z"/><path class="cls-1" d="M95.09,37.79a43.25,43.25,0,0,1,6.59.46c3.72.83,6.19,3.09,6.48,7.14S107,52.74,103,54a28,28,0,0,1-16.16.19,7.59,7.59,0,0,1-5.74-8.32,7.83,7.83,0,0,1,6.72-7.59A54.62,54.62,0,0,1,95.09,37.79Z"/></g></g></svg>