<svg xmlns="http://www.w3.org/2000/svg" viewBox="0 0 317.21 316.65"><defs><style>.cls-1{fill:#e2ff00;}</style></defs><title>editar</title><g id="Camada_2" data-name="Camada 2"><g id="Camada_1-2" data-name="Camada 1"><path class="cls-1" d="M122.68,137.08c-.53.67-.84,1-1.14,1.44-4.92,6.52-10.31,8.86-19.26,6.9-13.81-3-27,1.41-37.33,11.15-13.47,12.65-26.72,25.61-39.21,39.22C8.79,214.27,10,243.11,27.65,261s46.48,19.68,65.13,2.91c14.1-12.68,27.48-26.26,40.27-40.26,10.77-11.79,13.75-26.39,10-41.95-.93-3.88-.64-6.41,2.41-9,2.25-1.91,3.92-4.49,6-7,12,21.33,7.6,51.06-10,69.44q-18.16,18.93-37.11,37.1c-23.87,22.9-62.25,22.4-85.72-.82-23.91-23.65-25-61.65-2.15-86,12.32-13.1,25.09-25.81,38.12-38.21C72.66,130,101.17,125.94,122.68,137.08Z"/><path class="cls-1" d="M136.82,123.44c-9.65-23-8.63-44.61,6.31-63.51a291,291,0,0,1,47.23-47.28c25.26-20,62-15.61,83.31,8.66,20.92,23.79,20.36,60.33-1.59,83.2q-18.16,18.93-37.12,37.1c-18.34,17.63-48.2,22.08-69.28,10.09,3.15-2.84,6.23-5.39,9-8.22,1.44-1.46,2.7-1.35,4.43-.88,19.12,5.2,35.42.17,49.26-13.7,10.83-10.84,21.86-21.5,32.47-32.56,25.52-26.57,15.45-68.94-19.07-80-17.17-5.49-33.22-2.34-46.5,9.85C182.18,38.25,169.65,51,157.44,64s-15.6,28.26-11,45.34c.69,2.57.44,4.27-1.62,6.06C142.18,117.63,139.89,120.29,136.82,123.44Z"/><path class="cls-1" d="M103.7,192.76c-3,.07-5-1-6.3-3.13a6.31,6.31,0,0,1-.05-7.06,20.36,20.36,0,0,1,2.93-3.37q39.39-39.43,78.82-78.81A14.44,14.44,0,0,1,183.34,97,6.3,6.3,0,0,1,191,98.86a6.41,6.41,0,0,1,.64,7.88,18,18,0,0,1-2.93,3.37q-39.37,39.42-78.8,78.82C108.06,190.81,106.32,193,103.7,192.76Z"/><path class="cls-1" d="M315.54,185.88a30.42,30.42,0,0,0-7.81-12.9,26.69,26.69,0,0,0-12.44-6.69c-10.09-2.33-20.53,1.4-27.66,8.73-28.56,29.33-57.72,58.09-86.66,87a17.27,17.27,0,0,0-4.74,8c-3.16,11.69-6.42,23.36-10,34.93-1.51,4.88-1.08,8.7,3.29,11.68h5c12.15-4.43,24.82-7,37.22-10.62a20.65,20.65,0,0,0,9.25-5.47c23.31-23.33,46.79-46.49,70-69.9,2.05-2.06,4.17-4,6.28-6,4.91-4.62,9.86-9.28,13.87-14.74a36.2,36.2,0,0,0,5.17-8.79c.06-.14.1-.29.15-.44C317.93,195.87,317,190.53,315.54,185.88ZM182.08,299.93c1.89-6.69,3.6-12.77,5.37-19L201,294.63Zm105.68-85.25q-35.83,35.46-71.47,71.13c-1.89,1.89-2.79,1.21-4.26-.29-5.69-5.83-11.49-11.56-17.35-17.44.92-1,1.78-2,2.71-2.91,23-23.1,46.11-46.14,69-69.36,2.8-2.84,4.23-2.69,6.78.1,4.6,5,9.54,9.76,14.49,14.45C289.37,212,289.54,212.91,287.76,214.68Zm14.65-18.26c-.54,2.07-.82,4.77-2.9,5.49-1.78.62-2.76-1.91-4-3.09-4.69-4.5-9.14-9.24-13.91-13.65-2.25-2.08-1.53-3.07.63-4.21,4.47-2.36,9.12-2.51,13.35,0a14,14,0,0,1,7.07,12.47A16.27,16.27,0,0,1,302.41,196.42Z"/></g></g></svg>