<?xml version="1.0" encoding="utf-8"?>
<!-- Generator: Adobe Illustrator 22.1.0, SVG Export Plug-In . SVG Version: 6.00 Build 0)  -->
<svg version="1.1" id="Camada_1" xmlns="http://www.w3.org/2000/svg" xmlns:xlink="http://www.w3.org/1999/xlink" x="0px" y="0px"
	 viewBox="0 0 625 400" style="enable-background:new 0 0 625 400;" xml:space="preserve">
<style type="text/css">
	.st0{fill:#96A7AF;}
	.st1{opacity:0.8;fill:#EBF1F4;stroke:#858C8F;enable-background:new    ;}
	.st2{fill:#858C8F;}
	.st3{fill:none;stroke:#858C8F;stroke-width:2;}
	.st4{fill:#A8C038;}
	.st5{fill:#A8C038;stroke:#A8C038;stroke-width:0.5;}
	.st6{fill:#FFFFFF;stroke:#A8C038;stroke-width:0.5;}
	.st7{fill:none;stroke:#17C9B2;stroke-width:0.5;stroke-linecap:square;}
	.st8{fill:#FFFFFF;stroke:#A8C038;}
	.st9{fill:none;stroke:#A8C038;stroke-width:0.5;stroke-linecap:square;}
	.st10{fill:none;stroke:#A8C038;}
	.st11{fill:#FFFFFF;stroke:#858C8F;}
	.st12{fill:none;stroke:#858C8F;}
	.st13{fill:#FFFFFF;stroke:#A8C038;stroke-width:2;}
	.st14{fill:#FCFCFC;stroke:#858C8F;}
</style>
<title>img</title>
<rect class="st0" width="625.1" height="399.9"/>
<path id="_Caminho_2" class="st1" d="M583.1,124.9C562.6,55.2,480.9,9.4,401.2,31.4c-31.1,8.6-54.6,29.2-90.3,30.4
	C277.4,63,238.8,49.8,204,46c-74.3-8-181.3,7.5-190.6,72.5c-4.1,28.6,13.6,66.1,19.5,95.3c6.8,33.7,5.7,73.2,39.8,101.3
	c58.5,48.2,145.4,44.4,211.9,35.8c35.8-4.7,55.7-8.1,89.2,5.6c31.1,12.7,56.1,35.2,92.2,26.1c27.1-7,36.1-33.2,60.1-43.6
	c27-11.8,50-7,68.7-30.6c22.6-28.6,7.2-54.1,0.9-86.7C589.3,189,592.8,157.8,583.1,124.9z"/>
<path class="st2" d="M446.2,191l3.2,3.2l-1.2,1.2l-3.2-3.2L446.2,191L446.2,191z M440.9,191l1.2,1.2l-3.2,3.2l-1.2-1.2L440.9,191z
	 M448.3,183.7l1.2,1.2l-3.2,3.2L445,187L448.3,183.7L448.3,183.7z M438.8,183.7l3.2,3.2l-1.2,1.2l-3.2-3.2L438.8,183.7z"/>
<circle class="st3" cx="130.4" cy="170.5" r="5.8"/>
<path class="st4" d="M127.6,321v3h-17.7v-3H127.6z M108.4,321v3h-7.3v-3H108.4z M114.3,313.7v3H92.2v-3H114.3z M126,313.7v3h-8.8v-3
	H126z M505.4,125.4v3h-16.2v-3C489.2,125.4,505.4,125.4,505.4,125.4z M486.4,125.4v3h-5.8v-3C480.6,125.4,486.4,125.4,486.4,125.4z
	 M493.8,116.6v3h-19.1v-3C474.6,116.6,493.8,116.6,493.8,116.6z M504.1,116.6v3h-8.8v-3C495.3,116.6,504.1,116.6,504.1,116.6z"/>
<ellipse class="st5" cx="174" cy="296.4" rx="30.8" ry="30.8"/>
<ellipse class="st6" cx="174" cy="296.4" rx="24.7" ry="24.7"/>
<path class="st7" d="M146,282.3l-1.6-0.7 M146.7,280.8l-1.6-0.7"/>
<path class="st8" d="M142.1,284.4l-3.1-1.5c-0.3-0.9-0.2-1.9,0.3-2.7l2.2-4.8c0.3-0.8,1.1-1.3,1.8-1.1c0.2,0.1,0.3,0.2,0.4,0.3
	l3.1,1.5L142.1,284.4z"/>
<path class="st9" d="M146,282.3l-1.6-0.7 M146.7,280.8l-1.6-0.7"/>
<path class="st8" d="M190.7,266.7l1.5-3.1c-0.4-0.9-1.2-1.6-2.1-1.9l-4.8-2.2c-0.7-0.4-1.6-0.3-2.1,0.4c-0.1,0.2-0.2,0.3-0.2,0.4
	l-1.5,3.1L190.7,266.7z"/>
<path class="st9" d="M186.4,267.5l0.7-1.6 M184.9,266.9l0.7-1.6 M173.6,313.6l-0.3,3.9l-0.6-0.1l0.4-3.9L173.6,313.6z M181.4,311.8
	l0.2,0.3l2.1,2.5l0.2,0.3l-0.4,0.4l-0.3-0.3l-2.1-2.5l-0.2-0.3L181.4,311.8z M164.5,310.3l0.4,0.4l-0.3,0.2l-2.5,2.1l-0.3,0.2
	l-0.4-0.4l0.3-0.2l2.5-2.1L164.5,310.3z M158.4,303l0.4,0.4l-0.3,0.2l-2.5,2.1l-0.3,0.2l-0.4-0.4l0.3-0.2l2.5-2.1L158.4,303
	L158.4,303z M188.7,305.7l0.3,0.2l3.1,2.5l0.3,0.2L192,309l-0.3-0.2l-3.1-2.5l-0.3-0.2L188.7,305.7z M195.5,297.2l-0.1,0.6l-3.9-0.4
	l0.1-0.6L195.5,297.2z M157.2,293.9l-0.1,0.6l-3.9-0.4l0.1-0.6L157.2,293.9z M192.7,286.7l0.4,0.4l-0.3,0.2l-2.5,2.1l-0.3,0.3
	l-0.4-0.4l0.3-0.2l2.5-2.1L192.7,286.7z M157.8,283.6l0.3,0.3l2.1,2.5l0.2,0.3l-0.4,0.4l-0.2-0.3l-2.1-2.4l-0.2-0.3L157.8,283.6z
	 M186.5,279.4l0.4,0.4l-0.3,0.3l-2.5,2.1l-0.3,0.2l-0.4-0.4l0.3-0.2l2.5-2.1L186.5,279.4z M166.4,277.7l0.1,0.3l0.9,2.3l0.1,0.3
	l-0.5,0.3l-0.1-0.3l-0.9-2.3l-0.1-0.3C165.9,277.9,166.4,277.7,166.4,277.7z M177,275.3l-0.4,3.9l-0.6-0.1l0.4-3.9L177,275.3
	L177,275.3z"/>
<path class="st10" d="M170.1,284.1l5,11.9l5,11.8"/>
<path class="st11" d="M205.8,313H181c0.9,6.2,3.2,10.1,6.9,11.8c3.7,1.7,90.8,1.7,261.4,0c6.5-1.7,9.7-5.7,9.7-11.8h-30.4"/>
<path class="st11" d="M204.8,195.8h237.5v118.3H204.8V195.8z"/>
<path class="st1" d="M213.6,203.3h219.8v103.5H213.6V203.3L213.6,203.3z"/>
<path class="st12" d="M291.2,314.6c1,3,2.5,4.4,4.4,4.4h58.9c3-1,4.4-2.5,4.4-4.4H291.2z"/>
<path class="st10" d="M298.2,273.6c2.2-11.8,9-17.7,20.1-17.7s18.2,5.2,21.2,15.4"/>
<path class="st13" d="M308.6,197.9c-19.1-0.4-32.1,4.9-39,16.1c-2.3,2.7,6.6-40.1,31.1-41.3 M338.5,210c14.1,13,19.7,25.9,16.9,38.6
	c-0.3,3.6,23.1-33.5,6.2-51.3"/>
<path class="st13" d="M319.8,212.2c-19-23.1-23.4-47.1-13.3-72.1s30-39.3,59.7-42.7c20.4,23.6,25.5,47.9,15.4,72.9
	S350.8,209.4,319.8,212.2z"/>
<path class="st10" d="M338.1,105.1c12.7,11.5,27.3,17.3,43.6,17.7"/>
<ellipse class="st4" cx="345.5" cy="149.5" rx="14.7" ry="14.7"/>
<path class="st10" d="M311.4,211.6v81.3c0,3.8-2.2,5.7-6.6,5.7s-6.6-1.2-6.6-3.4 M318.8,217.6l1.5,73.7 M327.7,216.1v66
	c0.7,2.2,2.5,3.2,5.3,3.2c2.5,0.2,5-1.2,6.4-3.2 M232,303.1c0-11.8,6.5-18.2,19.4-19c1.2,0,2.2-17.9,20.5-17.9
	c10.6,0.7,17.4,4.8,20.5,12.2 M251.2,307.5c0-6.7,2-11.3,5.7-13.6c5.7-3.4,11.5-3.3,16.1,1.2c3.5,4.5-2.3-3.4,4.6-9.1
	c3.1-2.2,6.6-2.6,10.4-1.2 M405.7,303.1c0-11.8-6.5-18.2-19.4-19c-1.2,0-2.2-17.9-20.5-17.9c-10.7,0.7-17.5,4.8-20.5,12.2"/>
<path class="st10" d="M395.4,307.5c0-6.7-2-11.3-5.7-13.6c-5.7-3.4-11.5-3.3-16.1,1.2c-3.5,4.5,2.3-3.4-4.6-9.1
	c-3.1-2.2-6.6-2.6-10.4-1.2"/>
<path class="st14" d="M458.9,252.8v68.6c6.3,4.2,16.2,6.3,29.9,6.3c13.6,0,24.4-2.1,32.3-6.3v-11c13.6-2.6,20.5-9.6,20.5-20.9
	c0-17-9.5-24-20.5-24v-12.7c-1.6-3.1-12.3-4.8-32.3-4.8C468.9,248.1,458.9,249.7,458.9,252.8z"/>
<path class="st11" d="M520.9,271.7v29.5c9.9-1.1,14.8-5.7,14.8-14C535.7,278.9,530.7,273.8,520.9,271.7z M458.9,252.6
	c3.7,3,14.6,4.4,33,4.4c18.3,0,27.9-1.5,29-4.4c-3.1-3-13.5-4.4-31-4.4C470.3,248.1,459.9,249.6,458.9,252.6z"/>
<path class="st4" d="M489.5,297.7c4.4,0,8.6,0,13,0c0.4,0,1,0,1.3,0.2c1.4,0.4,2.1,2.1,1.3,3.4c-0.4,0.8-1.1,1.6-1.6,2.2
	c-3.1,3.5-7.1,5.7-11.8,6.2c-7.4,0.7-13.3-2-17.8-8c-0.6-0.8-0.7-1.7-0.3-2.7c0.5-1,1.4-1.3,2.5-1.3c2.5,0,5.2,0,7.7,0
	C485.9,297.7,487.7,297.7,489.5,297.7z M489.5,299.8c-4.4,0-8.8,0-13.2,0c-0.3,0-0.5-0.1-0.6,0.3c-0.1,0.3,0.1,0.4,0.3,0.6
	c1,1.4,2.2,2.6,3.5,3.7c0.3,0.3,0.4,0.3,0.7-0.1c2.2-2.6,5.8-3.3,8.9-1.6c0.4,0.3,0.6,0.3,1,0c2.7-1.6,6-1.2,8.3,1
	c0.3,0.3,0.4,0.9,1,0.8c0.4-0.1,0.7-0.5,1.1-0.7c1.1-0.9,2.1-2,2.9-3.1c0.3-0.4,0.3-0.6-0.3-0.7c-0.2,0-0.4,0-0.5,0
	C498.1,299.8,493.8,299.8,489.5,299.8z M489.5,307.6c0.4,0,0.7-0.1,1.2-0.1c2.2-0.2,4.2-0.7,6.2-1.6c0.5-0.3,0.4-0.4,0.1-0.7
	c-1.7-1.6-4.4-1.9-6.3-0.4c-1.1,0.7-1.2,0.7-2.2,0c-1.9-1.3-4.6-1.2-6.2,0.4c-0.5,0.4-0.4,0.5,0.1,0.8
	C484.6,307.2,486.9,307.6,489.5,307.6z"/>
<path class="st4" d="M482.6,278.6c0.1,0.7-0.3,1.2-0.9,1.3c-0.7,0.1-1.2-0.3-1.2-1.1c-0.1-0.8-0.5-1.5-1.3-1.7
	c-0.7-0.3-1.4-0.1-2,0.4s-0.7,1.3-0.4,2.1c0.3,0.7,0.8,1.2,1.6,1.3c1,0.1,1.9,0.3,2.6,0.8c2.5,1.9,2.1,5.7-0.7,6.9
	c-0.4,0.3-0.6,0.4-0.6,0.9c0,0.3,0,0.5-0.2,0.8c-0.3,0.4-0.5,0.6-1,0.6s-0.7-0.3-1-0.7c-0.1-0.1-0.1-0.3-0.1-0.3
	c0.2-0.9-0.4-1.2-1.2-1.6c-1.2-0.7-1.9-1.9-1.9-3.3c0-0.7,0.4-1.1,0.9-1.2s1,0.3,1.2,1c0,0.2,0.1,0.3,0.1,0.4
	c0.3,1.1,1.1,1.6,2.2,1.5c0.9-0.1,1.6-1,1.6-1.9c0-1-0.8-1.8-1.8-1.9c-1.3-0.1-2.4-0.4-3.2-1.5c-1.6-2.1-1.1-5.1,1.3-6.2
	c0.5-0.3,0.7-0.5,0.7-1.2c0-0.3,0.1-0.6,0.3-0.8c0.3-0.4,0.6-0.5,1.1-0.4c0.4,0.2,0.8,0.4,0.8,1c-0.1,0.9,0.4,1.3,1.2,1.6
	C481.9,276.1,482.5,277.1,482.6,278.6z"/>
<path class="st4" d="M504.5,278.4c0,1-0.3,1.3-0.9,1.4s-1.1-0.3-1.2-1c-0.3-1.6-1.4-2.2-2.6-1.8c-0.8,0.3-1.3,1.2-1.2,2.1
	c0.2,0.9,0.8,1.6,1.7,1.6c1.2,0.1,2.3,0.4,3.1,1.3c1.9,2,1.3,5.1-1.1,6.4c-0.5,0.3-0.9,0.5-0.7,1.2c0,0.2,0,0.3-0.1,0.4
	c-0.2,0.5-0.6,0.9-1.2,0.8s-1-0.4-1-0.9c0.1-0.9-0.4-1.3-1.2-1.6c-1.2-0.7-1.8-1.8-1.9-3.1c-0.1-0.7,0.3-1.2,0.9-1.3
	c0.6-0.1,1.1,0.4,1.2,1.1c0.3,1.5,1.4,2.2,2.6,1.7c0.9-0.4,1.3-1.2,1.2-2.1s-0.9-1.5-1.8-1.6c-1.4-0.1-2.6-0.6-3.5-1.8
	c-1.4-2.1-0.6-4.8,1.6-5.9c0.5-0.3,0.7-0.5,0.6-1c0-0.3,0-0.4,0.1-0.6c0.2-0.4,0.4-0.7,1-0.8c0.5,0,0.8,0.3,1,0.7
	c0,0.1,0.1,0.2,0.1,0.3c-0.2,0.9,0.4,1.3,1.2,1.6C503.9,276.1,504.5,277.1,504.5,278.4z"/>
</svg>
