<?xml version="1.0" encoding="utf-8"?>
<!-- Generator: Adobe Illustrator 22.1.0, SVG Export Plug-In . SVG Version: 6.00 Build 0)  -->
<svg version="1.1" id="Camada_1" xmlns="http://www.w3.org/2000/svg" xmlns:xlink="http://www.w3.org/1999/xlink" x="0px" y="0px"
	 viewBox="0 0 317.2 316.6" style="enable-background:new 0 0 317.2 316.6;" xml:space="preserve">
<style type="text/css">
	.st0{fill:#96A7AF;}
</style>
<title>editar</title>
<path class="st0" d="M136.7,151.1c-0.5,0.7-0.8,1-1.1,1.4c-4.9,6.5-10.3,8.9-19.3,6.9c-13.8-3-27,1.4-37.3,11.1
	c-13.5,12.6-26.7,25.6-39.2,39.2C22.8,228.3,24,257.1,41.6,275s46.5,19.7,65.1,2.9c14.1-12.7,27.5-26.3,40.3-40.3
	c10.8-11.8,13.8-26.4,10-41.9c-0.9-3.9-0.6-6.4,2.4-9c2.3-1.9,3.9-4.5,6-7c12,21.3,7.6,51.1-10,69.4c-12.1,12.6-24.5,25-37.1,37.1
	c-23.9,22.9-62.3,22.4-85.7-0.8c-23.9-23.6-25-61.7-2.1-86c12.3-13.1,25.1-25.8,38.1-38.2C86.6,144,115.2,139.9,136.7,151.1z"/>
<path class="st0" d="M150.8,137.4c-9.6-23-8.6-44.6,6.3-63.5c13.9-17.5,29.7-33.4,47.2-47.3c25.3-20,62-15.6,83.3,8.7
	c20.9,23.8,20.4,60.3-1.6,83.2c-12.1,12.6-24.5,25-37.1,37.1c-18.3,17.6-48.2,22.1-69.3,10.1c3.1-2.8,6.2-5.4,9-8.2
	c1.4-1.5,2.7-1.4,4.4-0.9c19.1,5.2,35.4,0.2,49.3-13.7c10.8-10.8,21.9-21.5,32.5-32.6c25.5-26.6,15.5-68.9-19.1-80
	c-17.2-5.5-33.2-2.3-46.5,9.9C196.2,52.2,183.6,65,171.4,78s-15.6,28.3-11,45.3c0.7,2.6,0.4,4.3-1.6,6.1
	C156.2,131.6,153.9,134.3,150.8,137.4z"/>
<path class="st0" d="M117.7,206.7c-3,0.1-5-1-6.3-3.1c-1.5-2.1-1.5-4.9-0.1-7.1c0.9-1.2,1.8-2.4,2.9-3.4
	c26.3-26.3,52.5-52.6,78.8-78.8c1.2-1.4,2.6-2.5,4.2-3.4c2.7-1.3,5.9-0.5,7.7,1.9c2,2.2,2.3,5.4,0.6,7.9c-0.8,1.2-1.8,2.4-2.9,3.4
	c-26.2,26.3-52.5,52.6-78.8,78.8C122,204.8,120.3,207,117.7,206.7z"/>
</svg>
