<?xml version="1.0" encoding="utf-8"?>
<!-- Generator: Adobe Illustrator 22.1.0, SVG Export Plug-In . SVG Version: 6.00 Build 0)  -->
<svg version="1.1" id="Camada_1" xmlns="http://www.w3.org/2000/svg" xmlns:xlink="http://www.w3.org/1999/xlink" x="0px" y="0px"
	 viewBox="0 0 454.6 389" style="enable-background:new 0 0 454.6 389;" xml:space="preserve">
<style type="text/css">
	.st0{fill:#EBEBEB;}
	.st1{fill:#C5D307;}
	.st2{fill:#FFFFFF;}
	.st3{fill:#E2FF00;}
	.st4{fill:#CAD807;}
	.st5{fill:#FAFAFA;}
	.st6{fill:#E0E0E0;}
	.st7{fill:#455A64;}
	.st8{opacity:0.1;}
	.st9{fill:#FAFAFA;stroke:#E0E0E0;stroke-width:1.17;stroke-miterlimit:10;}
	.st10{fill:#37474F;}
</style>
<title>login_2</title>
<g id="Shadows">
	<polygon id="Shadow" class="st0" points="116.4,315.9 75.8,292.4 116.4,269 	"/>
	<polygon id="Shadow-2" class="st0" points="192.2,370.9 126.8,333.1 192.3,295.3 	"/>
</g>
<g id="Plants">
	<path id="_Caminho_" class="st1" d="M120.5,277c0.1-9.5-6.5-29.3-16.2-41.7s-25.1-21.7-36.2-18c-10.3,3.4-9.3,16.9,3,25.9
		s30.9,20.5,36.2,36l11.3,19L120.5,277z"/>
	<g id="_Grupo_">
		<path id="_Caminho_2" class="st2" d="M121,290c-0.3,0-0.6-0.3-0.6-0.6c-6-32.5-31.9-59.2-47.5-65.2c-0.4-0.1-0.5-0.5-0.4-0.9
			c0.1-0.4,0.5-0.5,0.9-0.4c0,0,0,0,0,0c15.9,6.1,42.3,33.2,48.4,66.2c0.1,0.4-0.2,0.7-0.5,0.8c0,0,0,0,0,0
			C121.1,290,121.1,290,121,290z"/>
	</g>
	<g id="_Grupo_2">
		<path id="_Caminho_3" class="st3" d="M115.9,310.7c-1.5-5.4-7.9-14.3-18.3-21.7C86,280.9,71.3,277,68,270.7
			c-4-7.6,2.4-14.6,14.4-13s32.9,18.2,35.9,42.9L115.9,310.7z"/>
	</g>
	<g id="_Grupo_3">
		<path id="_Caminho_4" class="st2" d="M118.3,305.2c-0.3,0-0.5-0.2-0.6-0.5c-9.6-27.9-30.7-37.9-40.5-39.3
			c-0.4-0.1-0.6-0.4-0.6-0.8c0.1-0.4,0.4-0.6,0.8-0.6c0,0,0,0,0,0c10.8,1.5,31.8,11.8,41.6,40.2c0.1,0.4-0.1,0.8-0.4,0.9
			c0,0,0,0,0,0C118.5,305.2,118.4,305.2,118.3,305.2z"/>
	</g>
	<path id="_Caminho_5" class="st4" d="M356,304c0,0,1.3-20,13.1-34.9s11.1-21,2.9-24s-27,14.9-22.8,38.9S356,304,356,304z"/>
	<g id="_Grupo_4">
		<path id="_Caminho_6" class="st2" d="M352.4,292.5c-0.2,0-0.4-0.2-0.5-0.4c-1.4-22.1,14.2-40.1,20-44.3c0.2-0.1,0.5-0.1,0.6,0.1
			c0.1,0.2,0.1,0.5-0.1,0.6l0,0c-5.7,4-21,21.8-19.6,43.4C352.9,292.3,352.7,292.5,352.4,292.5L352.4,292.5z"/>
	</g>
	<path id="_Caminho_7" class="st3" d="M352.8,320.5c5.3,1.7,10.7,3,16.3,3.9c9.1,1.4,13.2-2.9,13.2-2.9s-3.6-8.6-8.8-11
		c5.6,1.3,11,3.4,15.9,6.5c0,0,5.6,0.1,7.8-8.4c0,0-3.3-5.1-14.4-7.9c0,0,6.8-1.7,16.5,0.8c0.7,0.3,3.8-10.7,4.8-15.8
		s-1.1-5-5.1-6.1s-17.1-4-19.6-1.8s-3.7,9.6-3.7,9.6c-1-3.1-1.1-6.3-0.4-9.4c0,0-3.6-1.4-9.1,0.2c-4.5,1.3-4.8,4.4-4.5,7.9
		c0.3,3,0.9,6,2,8.8c0,0-3.5-4.5-3.6-14.3c0,0-9.3,4.6-10.8,13.8C348.2,299.3,347,313.9,352.8,320.5z"/>
	<g id="_Grupo_5">
		<path id="_Caminho_8" class="st2" d="M354.6,318.7c0.2,0,0.4-0.1,0.5-0.3c7.4-15.3,34.8-33.1,44.6-35c0.3-0.1,0.5-0.3,0.4-0.6
			c-0.1-0.3-0.3-0.5-0.6-0.4c-10,1.9-37.9,20-45.4,35.6c-0.1,0.3,0,0.6,0.2,0.7C354.4,318.7,354.5,318.8,354.6,318.7z"/>
	</g>
</g>
<g id="Computer_Screen">
	<g id="_Grupo_6">
		<path class="st5" d="M117.9,314.8c-1.1,0-1.8-0.9-1.8-2.5V144.1l206-118.9v167.5c-0.1,2.8-1.6,5.4-4,7L119.5,314.3
			C119,314.6,118.5,314.8,117.9,314.8z"/>
		<path class="st6" d="M321.5,26.2v166.5c-0.2,2.6-1.5,5-3.7,6.5L119.2,313.8c-0.4,0.3-0.9,0.4-1.3,0.4c-1.1,0-1.2-1.4-1.2-1.9
			V144.4L321.5,26.2 M322.7,24.2L115.5,143.8v168.6c0,2,1,3.1,2.4,3.1c0.7,0,1.4-0.2,1.9-0.6l198.5-114.6c2.6-1.7,4.2-4.5,4.3-7.5
			V24.2L322.7,24.2z"/>
	</g>
	<polygon id="_Caminho_9" class="st3" points="115.5,143.8 115.5,171.9 322.7,52.3 322.7,24.2 	"/>
	<path id="_Caminho_10" class="st5" d="M131.8,145.3v4c0,0.8,0.6,1.2,1.3,0.8l63.7-36.8v-7L133,143
		C132.2,143.5,131.8,144.4,131.8,145.3z"/>
	<path id="_Caminho_11" class="st7" d="M203.6,102.3c0.7-0.4,1.3-0.1,1.3,0.8v4c0,0.9-0.5,1.8-1.3,2.3l-6.8,3.9v-7L203.6,102.3z"/>
	<path id="_Caminho_12" class="st7" d="M115.5,134.7c0.2-3,1.8-5.8,4.3-7.5L318.3,12.6c2.4-1.4,4.3-0.3,4.3,2.5v9.1L115.5,143.8
		V134.7z"/>
	<g id="_Grupo_7" class="st8">
		<path id="_Caminho_13" d="M257.7,70.6c-2.6,1.7-4.3,4.6-4.4,7.7c0,2.8,2,4,4.4,2.6c2.6-1.7,4.3-4.6,4.4-7.7
			C262.1,70.4,260.1,69.2,257.7,70.6z"/>
		<path id="_Caminho_14" d="M237.4,82.4c-2.6,1.7-4.3,4.6-4.4,7.7c0,2.8,2,4,4.4,2.6c2.6-1.7,4.3-4.6,4.4-7.7
			C241.8,82.1,239.8,80.9,237.4,82.4z"/>
		<path id="_Caminho_15" d="M278,58.9c-2.6,1.7-4.3,4.6-4.4,7.7c0,2.8,2,4,4.4,2.6c2.6-1.7,4.3-4.6,4.4-7.7
			C282.4,58.6,280.4,57.5,278,58.9z"/>
		<path id="_Caminho_16" d="M298.3,47.2c-2.6,1.7-4.3,4.6-4.4,7.7c0,2.8,2,4,4.4,2.6c2.6-1.7,4.3-4.6,4.4-7.7
			C302.7,46.9,300.7,45.7,298.3,47.2z"/>
	</g>
	<path id="_Caminho_17" class="st6" d="M136.1,174.1l48.2-27.8c2.4-1.4,4.3-0.3,4.3,2.5v46.3c-0.2,3-1.8,5.8-4.3,7.5l-48.2,27.8
		c-2.4,1.4-4.3,0.3-4.3-2.5v-46.3C131.9,178.6,133.5,175.8,136.1,174.1z"/>
	<path id="_Caminho_18" class="st6" d="M205.1,134.2l101-58.3c2.4-1.4,4.3-0.3,4.3,2.5v46.3c-0.2,3-1.8,5.8-4.3,7.5l-101,58.3
		c-2.4,1.4-4.3,0.3-4.3-2.5v-46.3C201,138.7,202.6,135.9,205.1,134.2z"/>
	<g id="_Grupo_8">
		<path id="_Caminho_19" class="st6" d="M136.1,244.5l76.6-44.3c2.4-1.4,4.3-0.4,4.3,2.2c-0.2,2.9-1.8,5.6-4.3,7.2l-76.6,44.3
			c-2.4,1.4-4.3,0.4-4.3-2.2C132,248.7,133.6,246,136.1,244.5z"/>
		<path id="_Caminho_20" class="st6" d="M136.1,260.9l76.6-44.3c2.4-1.4,4.3-0.4,4.3,2.2c-0.2,2.9-1.8,5.6-4.3,7.2l-76.6,44.3
			c-2.4,1.4-4.3,0.4-4.3-2.2C132,265.1,133.6,262.5,136.1,260.9z"/>
		<path id="_Caminho_21" class="st6" d="M136.1,277.3l76.6-44.3c2.4-1.4,4.3-0.4,4.3,2.2c-0.2,2.9-1.8,5.6-4.3,7.2l-76.6,44.3
			c-2.4,1.4-4.3,0.4-4.3-2.2C132,281.5,133.6,278.9,136.1,277.3z"/>
	</g>
</g>
<g id="Mobile_Screen">
	<path id="_Caminho_22" class="st9" d="M190.2,133.4v233.9c0,2.8,1.9,3.9,4.3,2.5l105.1-60.7c2.6-1.7,4.2-4.5,4.3-7.5V67.7
		c0-2.8-1.9-3.9-4.3-2.5l-105.1,60.7C191.9,127.5,190.3,130.3,190.2,133.4z"/>
	<path id="_Caminho_23" class="st7" d="M196.3,137.7c0.1-0.8,0.5-1.4,1.1-1.8l12-6.9c0.6-0.4,1.1-0.1,1.1,0.5
		c-0.1,0.8-0.5,1.4-1.1,1.8l-12,6.9C196.8,138.6,196.3,138.4,196.3,137.7z"/>
	<path id="_Caminho_24" class="st7" d="M196.3,142.4c0.1-0.8,0.5-1.4,1.1-1.8l12-6.9c0.6-0.4,1.1-0.1,1.1,0.5
		c-0.1,0.8-0.5,1.4-1.1,1.8l-12,6.9C196.8,143.3,196.3,143,196.3,142.4z"/>
	<path id="_Caminho_25" class="st7" d="M196.3,147c0.1-0.8,0.5-1.4,1.1-1.8l12-6.9c0.6-0.4,1.1-0.1,1.1,0.5
		c-0.1,0.8-0.5,1.4-1.1,1.8l-12,6.9C196.8,147.9,196.3,147.7,196.3,147z"/>
	<path id="_Caminho_composto_" class="st10" d="M295.8,87.1v-1.9c0-0.1-0.1-0.2-0.2-0.1l-1.4,0.7c-0.1,0-0.2,0-0.2-0.1
		c0,0,0,0,0-0.1c-0.1-0.2-0.2-0.5-0.3-0.7c0-0.1,0-0.2,0-0.3l1-1.9c0-0.1,0-0.2-0.1-0.3l-1-0.6c-0.1-0.1-0.2,0-0.3,0.1c0,0,0,0,0,0
		l-1.2,1.8c-0.1,0.1-0.2,0.1-0.3,0.2c-0.3,0-0.5,0-0.8,0.1c-0.1,0-0.2,0-0.2-0.1c0,0,0,0,0,0l-0.2-1.6c0-0.1,0-0.1-0.1-0.1
		c0,0-0.1,0-0.1,0l-1.6,0.9c-0.1,0.1-0.2,0.2-0.2,0.3l-0.2,1.8c0,0.1-0.1,0.2-0.2,0.3c-0.3,0.3-0.6,0.6-0.9,1
		c-0.1,0.1-0.2,0.1-0.3,0.1l-1-0.4c-0.1,0-0.2,0-0.3,0.1l-1.2,2.1c-0.1,0.1,0,0.2,0,0.3l0.8,0.7c0.1,0.1,0.1,0.2,0.1,0.3
		c-0.1,0.4-0.3,0.8-0.4,1.3c0,0.1-0.1,0.2-0.2,0.3l-1.5,1c-0.1,0.1-0.2,0.2-0.2,0.3v1.9c0,0.1,0.1,0.2,0.2,0.1l1.4-0.7
		c0.1,0,0.2,0,0.2,0.1c0,0,0,0,0,0c0.1,0.3,0.2,0.5,0.3,0.7c0.1,0.1,0.1,0.2,0,0.3l-1,1.9c0,0.1,0,0.2,0.1,0.3l1,0.6
		c0.1,0.1,0.2,0,0.3-0.1L287,96c0.1-0.1,0.2-0.2,0.3-0.2c0.3,0,0.5,0,0.8-0.1c0.1,0,0.2,0,0.2,0.1c0,0,0,0,0,0l0.2,1.6
		c0,0.1,0.1,0.1,0.1,0.1c0,0,0.1,0,0.1,0l1.6-0.9c0.1-0.1,0.2-0.2,0.2-0.3l0.2-1.8c0-0.1,0.1-0.2,0.2-0.3c0.3-0.3,0.6-0.6,0.9-1
		c0.1-0.1,0.2-0.1,0.3-0.1l1,0.4c0.1,0,0.2,0,0.3-0.1l1.2-2.1c0.1-0.1,0.1-0.2,0-0.3l-0.8-0.7c-0.1-0.1-0.1-0.2-0.1-0.3
		c0.2-0.4,0.3-0.8,0.4-1.3c0-0.1,0.1-0.2,0.2-0.3l1.5-1C295.7,87.3,295.8,87.2,295.8,87.1z M289.5,92.9c-1.5,0.9-2.7,0.2-2.7-1.6
		c0.1-1.9,1.1-3.7,2.7-4.7c1.5-0.9,2.7-0.2,2.7,1.6C292.1,90.1,291.1,91.9,289.5,92.9z"/>
	<path id="_Caminho_26" class="st7" d="M247,133.2c12.3-7.1,22.2-1.3,22.2,12.8s-10,31.4-22.2,38.5s-22.2,1.3-22.2-12.8
		S234.8,140.3,247,133.2z"/>
	<path id="_Caminho_27" class="st3" d="M246.9,144.3c4-2.3,7.2-0.4,7.2,4.2c-0.3,5.1-2.9,9.7-7.2,12.5c-4,2.3-7.2,0.4-7.2-4.2
		C239.9,151.8,242.6,147.1,246.9,144.3z"/>
	<path id="_Caminho_28" class="st3" d="M261.1,168.8c0-7.6-5.3-10.6-11.9-6.8l-4.1,2.4c-6.5,3.8-11.9,13-11.9,20.5v2.1
		c1.2,0.4,2.5,0.6,3.8,0.6c3.5-0.1,6.9-1.1,9.9-3c5.7-3.5,10.5-8.3,14-13.9L261.1,168.8z"/>
	<path id="_Caminho_29" class="st3" d="M227,205.6l40.1-23.2c1.2-0.7,2.2-0.2,2.2,1.1c-0.1,1.5-0.9,2.8-2.2,3.6L227,210.3
		c-1.2,0.7-2.2,0.2-2.2-1.1C224.9,207.7,225.7,206.4,227,205.6z"/>
	<path id="_Caminho_30" class="st7" d="M222.7,222.2l48.8-28.2c1.2-0.7,2.2-0.2,2.2,1.1c-0.1,1.5-0.9,2.8-2.2,3.6l-48.8,28.2
		c-1.2,0.7-2.2,0.2-2.2-1.1C220.6,224.3,221.4,223,222.7,222.2z"/>
	<path id="_Caminho_31" class="st10" d="M272.7,216.7l13.6-7.9c0.7-0.4,1.3-0.2,1.3,0.4c-0.1,0.8-0.6,1.5-1.3,1.9l-13.6,7.9
		c-0.7,0.4-1.3,0.2-1.3-0.4C271.5,217.8,272,217.1,272.7,216.7z"/>
	<path id="_Caminho_32" class="st3" d="M204.5,251.4l20-11.6c1.2-0.7,2.2-0.1,2.2,1.3v13.8c-0.1,1.5-0.9,2.9-2.2,3.8l-20,11.6
		c-1.2,0.7-2.2,0.1-2.2-1.3v-13.8C202.4,253.6,203.2,252.2,204.5,251.4z"/>
	<path id="_Caminho_33" class="st5" d="M207.7,253.3l13.6-7.9c0.7-0.4,1.3-0.2,1.3,0.4c-0.1,0.8-0.6,1.5-1.3,1.9l-13.6,7.9
		c-0.7,0.4-1.3,0.2-1.3-0.4C206.5,254.4,207,253.7,207.7,253.3z"/>
	<path id="_Caminho_34" class="st5" d="M206.4,260.3v4c0,0.8,0.6,1.2,1.3,0.8l13.6-7.9c0.8-0.5,1.2-1.3,1.3-2.3v-4
		c0-0.8-0.6-1.2-1.3-0.8l-13.6,7.9C206.9,258.5,206.5,259.3,206.4,260.3z"/>
	<path id="_Caminho_35" class="st3" d="M237,232.6l20-11.6c1.2-0.7,2.2-0.1,2.2,1.3v13.8c-0.1,1.5-0.9,2.9-2.2,3.8l-20,11.6
		c-1.2,0.7-2.2,0.1-2.2-1.3v-13.8C234.9,234.9,235.7,233.5,237,232.6z"/>
	<path id="_Caminho_36" class="st5" d="M240.2,234.6l13.6-7.9c0.7-0.4,1.3-0.2,1.3,0.4c-0.1,0.8-0.6,1.5-1.3,1.9l-13.6,7.9
		c-0.7,0.4-1.3,0.2-1.3-0.4C239,235.7,239.5,235,240.2,234.6z"/>
	<path id="_Caminho_37" class="st5" d="M238.9,241.5v4c0,0.8,0.6,1.2,1.3,0.8l13.6-7.9c0.8-0.5,1.3-1.3,1.3-2.3v-4
		c0-0.8-0.6-1.2-1.3-0.8l-13.6,7.9C239.4,239.7,239,240.6,238.9,241.5z"/>
	<path id="_Caminho_38" class="st3" d="M269.5,213.9l20-11.6c1.2-0.7,2.2-0.1,2.2,1.3v13.8c-0.1,1.5-0.9,2.9-2.2,3.8l-20,11.6
		c-1.2,0.7-2.2,0.1-2.2-1.3v-13.8C267.4,216.1,268.2,214.7,269.5,213.9z"/>
	<path id="_Caminho_39" class="st5" d="M272.7,215.8l13.6-7.9c0.7-0.4,1.3-0.2,1.3,0.4c-0.1,0.8-0.6,1.5-1.3,1.9l-13.6,7.9
		c-0.7,0.4-1.3,0.2-1.3-0.4C271.5,216.9,272,216.2,272.7,215.8z"/>
	<path id="_Caminho_40" class="st5" d="M271.4,222.7v4c0,0.8,0.6,1.2,1.3,0.8l13.6-7.9c0.8-0.5,1.2-1.3,1.3-2.3v-4
		c0-0.8-0.6-1.2-1.3-0.8l-13.6,7.9C271.9,221,271.5,221.8,271.4,222.7z"/>
	<path id="_Caminho_41" class="st6" d="M206.7,283l80.7-46.6c2.4-1.4,4.3-0.4,4.3,2.2c-0.2,2.9-1.8,5.6-4.3,7.2l-80.7,46.6
		c-2.4,1.4-4.3,0.4-4.3-2.2C202.6,287.2,204.2,284.6,206.7,283z"/>
	<path id="_Caminho_42" class="st6" d="M206.7,301.7l80.7-46.6c2.4-1.4,4.3-0.4,4.3,2.2c-0.2,2.9-1.8,5.6-4.3,7.2l-80.7,46.6
		c-2.4,1.4-4.3,0.4-4.3-2.2C202.6,306,204.2,303.3,206.7,301.7z"/>
	<path id="_Caminho_43" class="st3" d="M233,310l28.2-16.3c1.2-0.7,2.2-0.1,2.2,1.3v9.1c-0.1,1.5-0.9,2.9-2.2,3.8L233,324.1
		c-1.2,0.7-2.2,0.1-2.2-1.3v-9.1C230.9,312.2,231.7,310.8,233,310z"/>
	<g id="_Grupo_9">
		<path id="_Caminho_44" class="st5" d="M208.4,284.4c-1.2,0.8-1.9,2.1-2,3.5c0,1.3,0.9,1.8,2,1.2c1.2-0.8,1.9-2.1,2-3.5
			C210.5,284.2,209.6,283.7,208.4,284.4z"/>
		<path id="_Caminho_45" class="st5" d="M214.9,280.6c-1.2,0.8-1.9,2.1-2,3.5c0,1.3,0.9,1.8,2,1.2c1.2-0.8,1.9-2.1,2-3.5
			C216.9,280.5,216,280,214.9,280.6z"/>
		<path id="_Caminho_46" class="st5" d="M221.3,276.9c-1.2,0.8-1.9,2.1-2,3.5c0,1.3,0.9,1.8,2,1.2c1.2-0.8,1.9-2.1,2-3.5
			C223.4,276.8,222.4,276.3,221.3,276.9z"/>
		<path id="_Caminho_47" class="st5" d="M227.8,273.2c-1.2,0.8-1.9,2.1-2,3.5c0,1.3,0.9,1.8,2,1.2c1.2-0.8,1.9-2.1,2-3.5
			C229.8,273.1,228.9,272.5,227.8,273.2z"/>
		<path id="_Caminho_48" class="st5" d="M234.2,269.5c-1.2,0.8-1.9,2.1-2,3.5c0,1.3,0.9,1.8,2,1.2c1.2-0.8,1.9-2.1,2-3.5
			C236.2,269.4,235.3,268.8,234.2,269.5z"/>
		<path id="_Caminho_49" class="st5" d="M240.6,265.8c-1.2,0.8-1.9,2.1-2,3.5c0,1.3,0.9,1.8,2,1.2c1.2-0.8,1.9-2.1,2-3.5
			C242.6,265.6,241.7,265.1,240.6,265.8z"/>
		<path id="_Caminho_50" class="st5" d="M247.1,262c-1.2,0.8-1.9,2.1-2,3.5c0,1.3,0.9,1.8,2,1.2c1.2-0.8,1.9-2.1,2-3.5
			C249.1,261.9,248.2,261.4,247.1,262z"/>
	</g>
	<g id="_Grupo_10">
		<path id="_Caminho_51" class="st5" d="M208.4,303.1c-1.2,0.8-1.9,2.1-2,3.5c0,1.3,0.9,1.8,2,1.2c1.2-0.8,1.9-2.1,2-3.5
			C210.5,303,209.6,302.5,208.4,303.1z"/>
		<path id="_Caminho_52" class="st5" d="M214.9,299.4c-1.2,0.8-1.9,2.1-2,3.5c0,1.3,0.9,1.8,2,1.2c1.2-0.8,1.9-2.1,2-3.5
			C216.9,299.3,216,298.8,214.9,299.4z"/>
		<path id="_Caminho_53" class="st5" d="M221.3,295.7c-1.2,0.8-1.9,2.1-2,3.5c0,1.3,0.9,1.8,2,1.2c1.2-0.8,1.9-2.1,2-3.5
			C223.4,295.6,222.4,295,221.3,295.7z"/>
		<path id="_Caminho_54" class="st5" d="M227.8,292c-1.2,0.8-1.9,2.1-2,3.5c0,1.3,0.9,1.8,2,1.2c1.2-0.8,1.9-2.1,2-3.5
			C229.8,291.9,228.9,291.3,227.8,292z"/>
		<path id="_Caminho_55" class="st5" d="M234.2,288.3c-1.2,0.8-1.9,2.1-2,3.5c0,1.3,0.9,1.8,2,1.2c1.2-0.8,1.9-2.1,2-3.5
			C236.2,288.1,235.3,287.6,234.2,288.3z"/>
		<path id="_Caminho_56" class="st5" d="M240.6,284.5c-1.2,0.8-1.9,2.1-2,3.5c0,1.3,0.9,1.8,2,1.2c1.2-0.8,1.9-2.1,2-3.5
			C242.6,284.4,241.7,283.9,240.6,284.5z"/>
		<path id="_Caminho_57" class="st5" d="M247.1,280.8c-1.2,0.8-1.9,2.1-2,3.5c0,1.3,0.9,1.8,2,1.2c1.2-0.8,1.9-2.1,2-3.5
			C249.1,280.7,248.2,280.2,247.1,280.8z"/>
	</g>
</g>
<g id="Key">
	<g id="_Grupo_11">
		<g id="_Grupo_12">
			<g id="_Grupo_13">
				<path id="_Caminho_composto_2" class="st7" d="M317.3,353.1c-3.5,0-6.9-0.9-9.9-2.6c-7.2-4.2-11.3-12.9-11.3-23.9
					c0-19.4,12.3-41.7,28-50.8c8.5-4.9,16.9-5.4,23.7-1.5c7.2,4.2,11.3,12.9,11.3,23.9c0,19.4-12.3,41.7-28,50.8
					C327,351.6,322.2,353,317.3,353.1z M338,285.7c-2.4,0.2-4.8,0.9-6.8,2.2c-11.4,6.6-21.1,24.3-21.1,38.7c0,5.8,1.6,10.2,4.4,11.8
					c3.1,1.8,7.4-0.2,9.7-1.5c11.4-6.6,21.1-24.3,21.1-38.7c0-5.8-1.6-10.2-4.4-11.8C340,285.9,339,285.7,338,285.7z"/>
			</g>
			<path id="_Caminho_58" class="st10" d="M347.7,301.3c0-10.9-6.9-14.9-6.9-14.9l0,0c2.7,1.6,4.4,6,4.4,11.8
				c0,14.4-9.6,32.1-21.1,38.7c-2.3,1.3-6.6,3.3-9.7,1.5c0,0,5.8,3.6,13.8-0.8C339.8,331.3,347.7,315.7,347.7,301.3z"/>
		</g>
		<path id="_Caminho_59" class="st10" d="M336.7,165.3c0-4-3.2-7.2-7.2-7.2c-4,0-7.2,3.2-7.2,7.2l0,0l0,0V280l0,0
			c0.1,1.3,0.9,2.4,2.1,2.9c3.2,1.6,7,1.6,10.2,0c1.2-0.5,2-1.6,2.1-2.9l0,0L336.7,165.3L336.7,165.3L336.7,165.3z"/>
		<path id="_Caminho_60" class="st7" d="M331,190.9c-0.2-2.9-1.7-5.6-4.2-7.2c-0.9-0.6-2-0.7-3-0.3l0,0L306,193.6l-0.4,0.3
			c-0.1,0-0.1,0.1-0.2,0.1c-0.3,0.2-0.6,0.4-0.9,0.7c-2.3,2.3-2.3,6-0.1,8.3c1.8,1.9,4.7,2.3,7,1l0.3-0.2l17.9-10.3l0,0
			C330.6,193,331.1,191.9,331,190.9z"/>
		<path id="_Caminho_61" class="st7" d="M331,219.6c-0.2-2.9-1.7-5.6-4.2-7.2c-0.9-0.6-2-0.8-3-0.3l0,0l-20.9,12l-0.4,0.3
			c-0.1,0-0.1,0.1-0.2,0.1c-0.3,0.2-0.6,0.4-0.9,0.7c-2.3,2.3-2.3,6,0,8.4c0.4,0.4,0.9,0.7,1.3,1c1.8,0.9,3.9,0.9,5.6,0l0.3-0.2
			l21-12l0,0C330.7,221.7,331.1,220.7,331,219.6z"/>
	</g>
</g>
</svg>
