<svg xmlns="http://www.w3.org/2000/svg" viewBox="0 0 254.18 254.55"><title>palettes</title><g id="Camada_2" data-name="Camada 2"><g id="Camada_1-2" data-name="Camada 1"><path d="M93.18,127.24q0,50,0,100c0,16.34-7.84,25.63-24,26.58a333.15,333.15,0,0,1-48.43-.27A22.35,22.35,0,0,1,.65,233.71,91.33,91.33,0,0,1,0,223.25q-.06-96,0-192A91.6,91.6,0,0,1,.65,20.82,22.25,22.25,0,0,1,20.68,1,334.08,334.08,0,0,1,70.6.87c14.19,1,22.54,10.59,22.56,24.89Q93.25,76.51,93.18,127.24ZM36.09,218.91a10.69,10.69,0,0,0,10.49,11,11.32,11.32,0,0,0,11-10.75A10.68,10.68,0,0,0,46.83,208.4C40.46,208.38,36.16,212.58,36.09,218.91Z"/><path d="M114.77,149.49c0-19.5.06-39-.06-58.5a11.86,11.86,0,0,1,3.69-9.31c13.19-13,26.17-26.15,39.31-39.17,10.22-10.13,23.93-10.16,34.26,0Q207.86,58.09,223.43,74c9.84,10.08,9.81,23.89-.19,33.93Q171.36,160,119.3,211.85c-1,1-1.85,2.9-3.53,2.2s-1-2.65-1-4.06Q114.73,179.75,114.77,149.49Z"/><path d="M171.52,254.2q-28,0-56,0c-1.76,0-4.19.7-5-1.26-.64-1.65,1.53-2.75,2.66-3.88q42.18-42.25,84.38-84.48A10.59,10.59,0,0,1,206,161c7.82.2,15.66,0,23.48.09,13.17.19,22.92,8.85,23.85,22a340.49,340.49,0,0,1-.06,49.89c-.86,11.2-9.27,19.26-20.3,20.66-7.14.9-14.3.5-21.45.54C198.16,254.26,184.84,254.2,171.52,254.2Z"/></g></g></svg>