<?xml version="1.0" encoding="utf-8"?>
<!-- Generator: Adobe Illustrator 22.1.0, SVG Export Plug-In . SVG Version: 6.00 Build 0)  -->
<svg version="1.1" id="Camada_1" xmlns="http://www.w3.org/2000/svg" xmlns:xlink="http://www.w3.org/1999/xlink" x="0px" y="0px"
	 viewBox="0 0 48 48" style="enable-background:new 0 0 48 48;" xml:space="preserve">
<style type="text/css">
	.st0{fill:#980000;}
	.st1{fill:#FFFFFF;}
</style>
<path class="st0" d="M7,42c-0.8,0-1.5-0.3-2.1-0.9C4.3,40.5,4,39.8,4,39V13.4c0-0.8,0.3-1.5,0.9-2.1s1.3-0.9,2.1-0.9h7.4l2.8-3.3
	c0.3-0.4,0.6-0.6,1-0.8C18.5,6.1,18.9,6,19.4,6h9.2c0.5,0,0.9,0.1,1.3,0.3c0.4,0.2,0.7,0.4,1,0.8l2.8,3.3H41c0.8,0,1.5,0.3,2.1,0.9
	c0.6,0.6,0.9,1.3,0.9,2.1V39c0,0.8-0.3,1.5-0.9,2.1C42.5,41.7,41.8,42,41,42H7z"/>
<path class="st1" d="M24,34.7c2.4,0,4.4-0.8,6-2.5c1.6-1.6,2.5-3.7,2.5-6.1c0-2.4-0.8-4.4-2.5-6c-1.6-1.6-3.6-2.4-6-2.4
	c-2.4,0-4.5,0.8-6.1,2.4s-2.4,3.6-2.4,6c0,2.4,0.8,4.5,2.4,6.1C19.5,33.9,21.6,34.7,24,34.7z"/>
</svg>
