<svg xmlns="http://www.w3.org/2000/svg" xmlns:xlink="http://www.w3.org/1999/xlink" viewBox="0 0 101.44 317.21"><defs><style>.cls-1,.cls-2,.cls-3,.cls-5{fill:#fff;}.cls-1,.cls-10,.cls-11,.cls-15,.cls-16,.cls-19,.cls-2,.cls-3,.cls-7,.cls-8{stroke:#263238;}.cls-1,.cls-15,.cls-16,.cls-19,.cls-3,.cls-7,.cls-8{stroke-miterlimit:10;}.cls-1,.cls-10,.cls-11,.cls-19,.cls-2,.cls-7,.cls-8{stroke-width:1px;}.cls-10,.cls-11,.cls-18,.cls-2{stroke-linejoin:round;}.cls-4{isolation:isolate;}.cls-6{clip-path:url(#clip-path);}.cls-10,.cls-13,.cls-19,.cls-20,.cls-7{fill:#c6ff00;}.cls-10,.cls-13,.cls-7{opacity:0.5;}.cls-11,.cls-15,.cls-16,.cls-18,.cls-8{fill:none;}.cls-9{clip-path:url(#clip-path-2);}.cls-12{clip-path:url(#clip-path-3);}.cls-13,.cls-20{mix-blend-mode:multiply;}.cls-14{clip-path:url(#clip-path-4);}.cls-16,.cls-18{stroke-linecap:round;}.cls-17{fill:#263238;}.cls-18{stroke:#fff;stroke-width:0.5px;}.cls-21{clip-path:url(#clip-path-5);}</style><clipPath id="clip-path"><polygon id="_Caminho_de_recorte_" data-name="&lt;Caminho de recorte&gt;" class="cls-1" points="62.36 99.8 29.43 89.05 26.5 81.31 19.8 81.1 7.67 78.8 9.13 81.31 24.41 92.4 28.18 94.29 62.62 112.27 62.36 99.8"/></clipPath><clipPath id="clip-path-2"><polygon id="_Caminho_de_recorte_2" data-name="&lt;Caminho de recorte&gt;" class="cls-2" points="26.5 81.31 23.36 79.43 17.08 81.73 18.13 82.99 26.5 81.31"/></clipPath><clipPath id="clip-path-3"><path id="_Caminho_de_recorte_3" data-name="&lt;Caminho de recorte&gt;" class="cls-1" d="M69.35,30s-.51,4.5.76,7.39S78.43,50.1,78.43,50.1L65.26,60.66s-5.45-11-6.5-12.78S56.48,38.43,59.87,33,68.14,26,69.35,30Z"/></clipPath><clipPath id="clip-path-4"><path id="_Caminho_de_recorte_4" data-name="&lt;Caminho de recorte&gt;" class="cls-3" d="M73.42,21.79C72.61,16.81,66.89,6.62,57.8,7c-5.9.25-8.66,1.45-11.23,2.89a33,33,0,0,0-5.79,4.35c-4.45,5.32-6,6.79-5.14,10.86a12.18,12.18,0,0,0,.75,4.78c1.36,3.64,2.29,6,3.46,7.73-.36,1.7-1.29,6.15-1.34,7.17s3,.31,4.54-.07c2.86,6.39,8.1,10.83,9.73,11.34,2.84.89,7.33-3.78,9.71-7.4s.58-7.69.59-9.31,5.35-5.18,7.32-6.3S74.23,26.78,73.42,21.79Z"/></clipPath><clipPath id="clip-path-5"><path id="_Caminho_de_recorte_5" data-name="&lt;Caminho de recorte&gt;" class="cls-1" d="M84.33,57.51s7.08,4.83,7.25,16.25c.07,4.95-.45,9.66-1.6,17.86s-8.3,34.85-13.85,38.09-14.19-2.88-14.19-2.88L20.19,99.12l-10.08-8.2L5.16,81.48l1.49-3L19,88l-6.63-6.12,1.3-1.66,2.4,1.67,7,2.62,1.53,10L26.76,96l39.89,14.53s-.5-21.48-.13-25.6S67.4,70.51,71.8,63"/></clipPath></defs><title>user</title><g class="cls-4"><g id="Camada_2" data-name="Camada 2"><g id="Character"><polygon class="cls-1" points="62.36 99.8 29.43 89.05 26.5 81.31 19.8 81.1 7.67 78.8 9.13 81.31 24.41 92.4 28.18 94.29 62.62 112.27 62.36 99.8"/><polygon class="cls-2" points="26.5 81.31 23.36 79.43 17.08 81.73 18.13 82.99 26.5 81.31"/><polygon id="_Caminho_de_recorte_6" data-name="&lt;Caminho de recorte&gt;" class="cls-5" points="62.36 99.8 29.43 89.05 26.5 81.31 19.8 81.1 7.67 78.8 9.13 81.31 24.41 92.4 28.18 94.29 62.62 112.27 62.36 99.8"/><g class="cls-6"><polygon class="cls-7" points="62.36 99.8 29.43 89.05 26.5 81.31 19.8 81.1 7.67 78.8 9.13 81.31 24.41 92.4 28.18 94.29 62.62 112.27 62.36 99.8"/></g><polygon id="_Caminho_de_recorte_7" data-name="&lt;Caminho de recorte&gt;" class="cls-8" points="62.36 99.8 29.43 89.05 26.5 81.31 19.8 81.1 7.67 78.8 9.13 81.31 24.41 92.4 28.18 94.29 62.62 112.27 62.36 99.8"/><polygon id="_Caminho_de_recorte_8" data-name="&lt;Caminho de recorte&gt;" class="cls-5" points="26.5 81.31 23.36 79.43 17.08 81.73 18.13 82.99 26.5 81.31"/><g class="cls-9"><polygon class="cls-10" points="26.5 81.31 23.36 79.43 17.08 81.73 18.13 82.99 26.5 81.31"/></g><polygon id="_Caminho_de_recorte_9" data-name="&lt;Caminho de recorte&gt;" class="cls-11" points="26.5 81.31 23.36 79.43 17.08 81.73 18.13 82.99 26.5 81.31"/><path id="_Caminho_de_recorte_10" data-name="&lt;Caminho de recorte&gt;" class="cls-5" d="M69.35,30s-.51,4.5.76,7.39S78.43,50.1,78.43,50.1L65.26,60.66s-5.45-11-6.5-12.78S56.48,38.43,59.87,33,68.14,26,69.35,30Z"/><g class="cls-12"><polygon class="cls-13" points="62.58 44.49 68.3 56.33 65.26 60.66 59.52 50.41 62.58 44.49"/></g><path id="_Caminho_de_recorte_11" data-name="&lt;Caminho de recorte&gt;" class="cls-8" d="M69.35,30s-.51,4.5.76,7.39S78.43,50.1,78.43,50.1L65.26,60.66s-5.45-11-6.5-12.78S56.48,38.43,59.87,33,68.14,26,69.35,30Z"/><path id="_Caminho_de_recorte_12" data-name="&lt;Caminho de recorte&gt;" class="cls-5" d="M73.42,21.79C72.61,16.81,66.89,6.62,57.8,7c-5.9.25-8.66,1.45-11.23,2.89a33,33,0,0,0-5.79,4.35c-4.45,5.32-6,6.79-5.14,10.86a12.18,12.18,0,0,0,.75,4.78c1.36,3.64,2.29,6,3.46,7.73-.36,1.7-1.29,6.15-1.34,7.17s3,.31,4.54-.07c2.86,6.39,8.1,10.83,9.73,11.34,2.84.89,7.33-3.78,9.71-7.4s.58-7.69.59-9.31,5.35-5.18,7.32-6.3S74.23,26.78,73.42,21.79Z"/><g class="cls-14"><path class="cls-13" d="M35.64,25.12a12.18,12.18,0,0,0,.75,4.78c1.36,3.64,2.29,6,3.46,7.73-.36,1.7-1.29,6.15-1.34,7.17s3,.31,4.54-.07c2.86,6.39,8.1,10.83,9.73,11.34,2.84.89,7.33-3.78,9.71-7.4a7.28,7.28,0,0,0,1.12-3c-.12-.48-.21-.77-.21-.77s-1.35,5.16-4,4.48-6.72-6-9-7.84-1.34-4.26-1.79-6.94S41.44,29.45,41,27.88s1.12-8.06,1.12-8.06,2.54-3.4,2-2a9.52,9.52,0,0,0,.67,7.39,5.12,5.12,0,0,0,4.71,2.92L52,16l-5.15-4.26-6,2.51C36.33,19.58,34.81,21.05,35.64,25.12Z"/></g><path id="_Caminho_de_recorte_13" data-name="&lt;Caminho de recorte&gt;" class="cls-15" d="M73.42,21.79C72.61,16.81,66.89,6.62,57.8,7c-5.9.25-8.66,1.45-11.23,2.89a33,33,0,0,0-5.79,4.35c-4.45,5.32-6,6.79-5.14,10.86a12.18,12.18,0,0,0,.75,4.78c1.36,3.64,2.29,6,3.46,7.73-.36,1.7-1.29,6.15-1.34,7.17s3,.31,4.54-.07c2.86,6.39,8.1,10.83,9.73,11.34,2.84.89,7.33-3.78,9.71-7.4s.58-7.69.59-9.31,5.35-5.18,7.32-6.3S74.23,26.78,73.42,21.79Z"/><path class="cls-16" d="M41.09,34.61l1,2.86s2.14.72,4.77-2.15"/><path class="cls-16" d="M48.49,48s2.38-.23,3.34-3.57"/><path class="cls-16" d="M39.42,32.22s.72-2.14,5-2.14"/><path class="cls-17" d="M61.42,3A73.12,73.12,0,0,0,52,2.31s-9.41-5.43-18.46.36S28.83,18.6,28.83,21.14s-2.89,2.53-1.08,5.79,7.89,1.46,7.89,1.46A8.72,8.72,0,0,1,38.91,22c3.26-2.53,5.85-3.08,6.94-2.35,0,0-.72,5.43.36,7.6,0,0,3.62,1.81,4.71,1.81s-.71,1.54,2.89,2.9a4.6,4.6,0,0,0,4-.47c.52-2.2,1.69-5.51,3.85-4.75,3.17,1.13,6.06,8.94,1.77,11.59,5.16.94,11.41-8.18,11.77-16.51S66.77,3.92,61.42,3Z"/><path class="cls-18" d="M46.05,16.12S48.7,14.69,52,17.76s9.59,7.14,18,4.89"/><path class="cls-18" d="M45.64,13.67s1.84-2.85,4.9-2.85S60.75,15.1,66.46,15.1"/><path class="cls-18" d="M43.6,19.18s-3.47-4.28-6.73-.81-1.23,6.75-1.23,6.75"/><path class="cls-18" d="M29.72,22a10.64,10.64,0,0,0,3.47-6.94c.41-4.49,6.53-8.37,10.41-4.69"/><path class="cls-18" d="M36.05,5.71S42.17-.2,47.28,7.35"/><path class="cls-1" d="M85.94,296.78s3.77,5.87,3.35,9.64l-.42,3.77S75.05,314,72.12,314s-18.43-1.46-18.43-1.46L53,309.85a.88.88,0,0,1,.48-1l13.83-6.44,4.36-4.78Z"/><path class="cls-19" d="M74.21,311c3.75.29,10.88-2,15-3.46l-.29,2.63S75.05,314,72.12,314s-18.43-1.46-18.43-1.46l-.47-1.89C55.63,310.61,69.26,310.64,74.21,311Z"/><path class="cls-1" d="M67.34,302.4l-20.13,8.75s-1.73,4.31,0,5.17,39.22,0,39.22,0,2.59-6.81-1.51-11.38S67.34,302.4,67.34,302.4Z"/><path class="cls-19" d="M86.43,316.32s-37.5.86-39.22,0c-.83-.41-.86-1.63-.67-2.77H87.09A15,15,0,0,1,86.43,316.32Z"/><path class="cls-19" d="M57.82,150.18s-5.26,23.31-7.25,37.89-3.16,43.79-2.74,47.14,21.36,59.48,21.36,59.48l2.09,5,14.66-2.93s-6.7-21.36-9.21-33.09-8-31-8-34.34,13-67.33,13.93-71.54,5.15-10.65,5.15-10.65l-28.07-.57Z"/><path class="cls-19" d="M57.82,150.18s-3.08,21.29-1.81,36.1,4,46.31,4,51,7.57,32.71,8,41.5c.67,12.72-.28,19-.28,19l-.44,4.61s8.83,1.25,10.76,1.8a23.82,23.82,0,0,0,6.82.74s3.22-14.12,3.22-26.17-2.68-36.81-4-46.85,2.86-48.78,5.24-56,7.58-22.54,4.08-30.36S57.82,150.18,57.82,150.18Z"/><path class="cls-17" d="M97.3,141.62,97,151.14s-5.71,1.13-13.38,2.46c-6.34,1.1-22.26-.29-27.63-.8a1.88,1.88,0,0,1-1.68-2l.52-8.6Z"/><path class="cls-1" d="M75,46.72s-9,9.73-12.4,15.78-4.73,15.33-5.94,22.62,2.16,24.44,1.2,32.31l-3.07,24.79s-.66,1.69,1.55,3.52,13,2.52,22.74,3c3.57.18,14.2-2.12,15.94-2.23,2.1-.13,2.17-2.8,2.26-4.9.42-9.87,2.2-36.18,3.36-47.64C103,70.61,89.84,48.05,75,46.72Z"/><path class="cls-20" d="M99.52,107.27c.4-5.19.8-9.89,1.14-13.29.11-1,.17-2,.21-3L77,95l-20.53-7a113.78,113.78,0,0,0,.72,12.72l20.15,5.65Z"/><path class="cls-20" d="M74.12,47.71c-1.35,1.51-4.05,4.57-6.63,7.84L82.63,71l5-2Z"/><path class="cls-17" d="M75,46.72s-9,9.73-12.4,15.78a31.87,31.87,0,0,0-2.43,5.79l18.1-20.91A16.21,16.21,0,0,0,75,46.72Z"/><path class="cls-20" d="M57.33,81.18,77,87.64l23.86-2.73A55.86,55.86,0,0,0,96.91,67.6L77.63,75.31,60.44,67.52A90.07,90.07,0,0,0,57.33,81.18Z"/><path class="cls-20" d="M91.14,131.75a60.69,60.69,0,0,1-29.74-2.43l-4.79-1.64-1.49,12,5.46,1.53a82.32,82.32,0,0,0,31.93,2.46l4.41-.53a4,4,0,0,0,.38-1.55c.11-2.67.33-6.55.6-11Z"/><path class="cls-20" d="M93.81,115.41A60.69,60.69,0,0,1,64.07,113L58,110.9a40.42,40.42,0,0,1-.09,6.53l-.71,5.77,6.08,1.7a82.08,82.08,0,0,0,31.92,2.47l3-.36c.25-4,.54-8.26.85-12.47Z"/><rect class="cls-17" x="-2.32" y="79.71" width="24.81" height="1.33" transform="translate(-32.42 149.34) rotate(-141.2)"/><path id="_Caminho_de_recorte_14" data-name="&lt;Caminho de recorte&gt;" class="cls-5" d="M84.33,57.51s7.08,4.83,7.25,16.25c.07,4.95-.45,9.66-1.6,17.86s-8.3,34.85-13.85,38.09-14.19-2.88-14.19-2.88L20.19,99.12l-10.08-8.2L5.16,81.48l1.49-3L19,88l-6.63-6.12,1.3-1.66,2.4,1.67,7,2.62,1.53,10L26.76,96l39.89,14.53s-.5-21.48-.13-25.6S67.4,70.51,71.8,63"/><g class="cls-21"><path class="cls-13" d="M66.39,94.31c0,7.42.26,16.24.26,16.24L26.76,96,24.6,94.54l-1.53-10-7-2.62-2.4-1.67-1.3,1.66L19,88,6.65,78.53l-1.49,3,4.95,9.44,10.08,8.2,2.55,1.69,55.15,17.77Z"/></g><path id="_Caminho_de_recorte_15" data-name="&lt;Caminho de recorte&gt;" class="cls-8" d="M84.33,57.51s7.08,4.83,7.25,16.25c.07,4.95-.45,9.66-1.6,17.86s-8.3,34.85-13.85,38.09-14.19-2.88-14.19-2.88L20.19,99.12l-10.08-8.2L5.16,81.48l1.49-3L19,88l-6.63-6.12,1.3-1.66,2.4,1.67,7,2.62,1.53,10L26.76,96l39.89,14.53s-.5-21.48-.13-25.6S67.4,70.51,71.8,63"/><path class="cls-1" d="M66.65,110.55l15.24,11,4-7s2.72-2.15,3.13-3.76-.11-4.26.3-5.88,2.44-3.14,2.64-7.06,0-7.19,0-7.19,3.29-13.57,2.94-19.47-6-16.33-10.62-16.56S73.79,55.08,69.19,62,65.53,89.32,64.81,90.6s.27,7.53.27,7.53a3.51,3.51,0,0,0-1.43,2.54c-.08,1.63,1.68,5.65,1.68,5.65Z"/><path class="cls-20" d="M65.19,85.38a28,28,0,0,1-.38,5.22c-.65,1.14.09,6.28.24,7.33a59.11,59.11,0,0,0,26.52,2,9.89,9.89,0,0,0,.34-2.13c.2-3.91,0-7.19,0-7.19s.29-1.21.69-3.05A95.9,95.9,0,0,1,65.19,85.38Z"/><path class="cls-20" d="M68.56,63.16c-1.43,2.87-2.23,7.18-2.69,11.56a59.57,59.57,0,0,0,28.51,3.47,38.19,38.19,0,0,0,.51-7,19.56,19.56,0,0,0-1.3-5.4A98.39,98.39,0,0,1,68.56,63.16Z"/><path class="cls-17" d="M65.36,106.42l1.29,4.13,15.24,11,4-7s2.72-2.15,3.13-3.76a5.68,5.68,0,0,0,.13-.87A93.19,93.19,0,0,1,65.36,106.42Z"/><path class="cls-8" d="M76.39,304.07s.33-8.66,2-21.32-2.33-30.65-3-33.65.33-9.66-.33-12-3.91-12.32-2-23.9S76.52,171,76.52,171s-4.81-3.91-6.22-9-.33-6.69-.33-6.69"/><line class="cls-8" x1="78.62" y1="155.79" x2="76.77" y2="166.04"/></g></g></g></svg>